<?xml version="1.0" encoding="UTF-8"?>
<svg version="1.1" xmlns="http://www.w3.org/2000/svg" width="626" height="626">
<path d="M0 0 C0.66 0 1.32 0 2 0 C2 0.66 2 1.32 2 2 C3.485 1.505 3.485 1.505 5 1 C6 2 6 2 6.1241985 3.91956669 C6.12381878 4.76976051 6.12343906 5.61995433 6.12304783 6.4959116 C6.12503888 7.47325341 6.12702993 8.45059522 6.12908131 9.45755345 C6.12616847 10.54410613 6.12325563 11.63065881 6.12025452 12.75013733 C6.12153615 14.46651096 6.12153615 14.46651096 6.12284368 16.2175588 C6.12421182 19.40775506 6.12106454 22.59791123 6.11606562 25.78810275 C6.11176428 29.22301844 6.11320732 32.65793211 6.1139679 36.09284973 C6.11449333 42.04876719 6.11134448 48.00467374 6.10573006 53.96058846 C6.09761771 62.57193825 6.09500011 71.18328274 6.09374207 79.79463594 C6.09155113 93.76454219 6.08488991 107.73444262 6.07543945 121.7043457 C6.06626642 135.27823863 6.05918505 148.85212999 6.05493164 162.42602539 C6.05453756 163.68016945 6.05453756 163.68016945 6.05413551 164.95964975 C6.05283051 169.15391906 6.05156679 173.34818837 6.05032361 177.5424577 C6.03994969 212.36164262 6.02233024 247.18082077 6 282 C6.66 282.33 7.32 282.66 8 283 C7 286 7 286 4.9375 287.1875 C4.298125 287.455625 3.65875 287.72375 3 288 C3.33 288.66 3.66 289.32 4 290 C3.34 290 2.68 290 2 290 C2 290.66 2 291.32 2 292 C2.61875 291.79375 3.2375 291.5875 3.875 291.375 C4.57625 291.25125 5.2775 291.1275 6 291 C6.66 291.66 7.32 292.32 8 293 C9.78632542 293.79112691 11.60395152 294.5130074 13.4375 295.1875 C14.40558594 295.55230469 15.37367188 295.91710937 16.37109375 296.29296875 C19.07852366 297.28036145 19.07852366 297.28036145 22 296 C25.1875 297.9375 25.1875 297.9375 28 300 C28 299.34 28 298.68 28 298 C28.99 298 29.98 298 31 298 C31 298.99 31 299.98 31 301 C35.61507774 302.04214691 35.61507774 302.04214691 40 301 C40 301.99 40 302.98 40 304 C40.99 304 41.98 304 43 304 C43 304.66 43 305.32 43 306 C44.5159375 305.9071875 44.5159375 305.9071875 46.0625 305.8125 C50.40445752 306.01925988 53.06038462 307.24124313 57 309 C59.32694964 309.37531446 61.65976685 309.71917202 64 310 C64.33 310.33 64.66 310.66 65 311 C66.32491881 311.28243247 67.66102503 311.51302207 69 311.71875 C69.804375 311.84636719 70.60875 311.97398437 71.4375 312.10546875 C72.283125 312.23566406 73.12875 312.36585938 74 312.5 C75.66724399 312.75669458 77.33394878 313.01692457 79 313.28125 C80.11375 313.45237305 80.11375 313.45237305 81.25 313.62695312 C83 314 83 314 84 315 C85.55836106 315.1848903 87.12240167 315.32286649 88.6875 315.4375 C92.72080314 315.79627302 96.20868637 316.50342883 100 318 C100.33 317.34 100.66 316.68 101 316 C101.99 316 102.98 316 104 316 C104 316.66 104 317.32 104 318 C107.41863585 318.75739707 110.66265316 319.1594738 114.16015625 319.28125 C115.11857422 319.31863281 116.07699219 319.35601562 117.06445312 319.39453125 C119.06705247 319.464981 121.06965666 319.53529297 123.07226562 319.60546875 C124.02939453 319.64285156 124.98652344 319.68023437 125.97265625 319.71875 C126.84156494 319.74904297 127.71047363 319.77933594 128.60571289 319.81054688 C131 320 131 320 132.94970703 320.50927734 C135.6133931 321.14681116 138.09393675 321.12979579 140.83203125 321.1328125 C142.52489258 321.13474609 142.52489258 321.13474609 144.25195312 321.13671875 C145.42693359 321.13285156 146.60191406 321.12898438 147.8125 321.125 C148.97587891 321.12886719 150.13925781 321.13273437 151.33789062 321.13671875 C156.994489 321.13027982 162.43124236 321.02432622 168 320 C168 319.34 168 318.68 168 318 C168.66 318 169.32 318 170 318 C170 318.66 170 319.32 170 320 C173.3 320 176.6 320 180 320 C180 319.34 180 318.68 180 318 C180.71027344 317.93941406 181.42054688 317.87882812 182.15234375 317.81640625 C183.53099609 317.69072266 183.53099609 317.69072266 184.9375 317.5625 C185.85402344 317.48128906 186.77054687 317.40007812 187.71484375 317.31640625 C189.96159732 317.23955024 189.96159732 317.23955024 191 316 C193.67058851 315.85884839 196.32432238 315.95752893 199 316 C199 315.34 199 314.68 199 314 C201.31 314 203.62 314 206 314 C206 313.34 206 312.68 206 312 C206.95712891 311.83564453 206.95712891 311.83564453 207.93359375 311.66796875 C209.17302734 311.43013672 209.17302734 311.43013672 210.4375 311.1875 C211.26121094 311.03667969 212.08492188 310.88585937 212.93359375 310.73046875 C213.61550781 310.48941406 214.29742187 310.24835938 215 310 C215.33 309.01 215.66 308.02 216 307 C217.32 307 218.64 307 220 307 C219.67 306.01 219.34 305.02 219 304 C220.65 304 222.3 304 224 304 C224 303.34 224 302.68 224 302 C224.66 302 225.32 302 226 302 C226 302.66 226 303.32 226 304 C226.66 304 227.32 304 228 304 C228 303.34 228 302.68 228 302 C228.66 301.34 229.32 300.68 230 300 C230 299.34 230 298.68 230 298 C231.32 298 232.64 298 234 298 C234.66 296.68 235.32 295.36 236 294 C236.66 294 237.32 294 238 294 C238 292.68 238 291.36 238 290 C239.32 290 240.64 290 242 290 C241.34 288.68 240.68 287.36 240 286 C240.99 286 241.98 286 243 286 C243.66 286.66 244.32 287.32 245 288 C245.66 286.68 246.32 285.36 247 284 C247.66 284 248.32 284 249 284 C248.67 282.68 248.34 281.36 248 280 C248.99 280 249.98 280 251 280 C251.62457273 276.56484998 252 273.50935186 252 270 C252.66 270 253.32 270 254 270 C254 268.68 254 267.36 254 266 C254.66 266 255.32 266 256 266 C256 266.66 256 267.32 256 268 C256.66 268 257.32 268 258 268 C259.84251625 252.05632616 260.86638909 236.24815794 255.09375 221.046875 C254 218 254 218 254 214 C252.68 213.67 251.36 213.34 250 213 C250.33 211.68 250.66 210.36 251 209 C250.01 208.67 249.02 208.34 248 208 C248 207.34 248 206.68 248 206 C248.66 206 249.32 206 250 206 C250 205.34 250 204.68 250 204 C249.34 204 248.68 204 248 204 C248 202.68 248 201.36 248 200 C247.01 200 246.02 200 245 200 C243.515 195.05 243.515 195.05 242 190 C240.68 190 239.36 190 238 190 C238 188.02 238 186.04 238 184 C236.68 184 235.36 184 234 184 C234 182.68 234 181.36 234 180 C233.06716704 177.79932579 233.06716704 177.79932579 232 176 C231.34 176 230.68 176 230 176 C229.731875 175.030625 229.46375 174.06125 229.1875 173.0625 C228.795625 172.051875 228.40375 171.04125 228 170 C227.01 169.67 226.02 169.34 225 169 C225 168.01 225 167.02 225 166 C225.66 166 226.32 166 227 166 C227 166.66 227 167.32 227 168 C227.598125 168.12375 228.19625 168.2475 228.8125 168.375 C231 169 231 169 234 171 C234 171.99 234 172.98 234 174 C235.32 174 236.64 174 238 174 C238.33 174.99 238.66 175.98 239 177 C239.99 177.33 240.98 177.66 242 178 C242.72290376 179.70868163 243.44040393 181.42033003 244.10546875 183.15234375 C245.47902368 185.98942445 247.73394981 187.85643901 250 190 C250 190.66 250 191.32 250 192 C251.98 191.505 251.98 191.505 254 191 C254.33 193.31 254.66 195.62 255 198 C256.65 198 258.3 198 260 198 C260.185625 199.1446875 260.185625 199.1446875 260.375 200.3125 C260.88102792 203.20267136 260.88102792 203.20267136 263 206 C263.625 208.1875 263.625 208.1875 264 210 C264.66 210 265.32 210 266 210 C266 210.66 266 211.32 266 212 C267.32 212.33 268.64 212.66 270 213 C269.34 213.99 268.68 214.98 268 216 C269.32 216.33 270.64 216.66 272 217 C272 218.65 272 220.3 272 222 C273.32 222 274.64 222 276 222 C276.33 223.65 276.66 225.3 277 227 C277.99 227.33 278.98 227.66 280 228 C280 228.66 280 229.32 280 230 C279.34 230 278.68 230 278 230 C278 230.66 278 231.32 278 232 C278.66 232 279.32 232 280 232 C280 233.32 280 234.64 280 236 C281.32 236 282.64 236 284 236 C284 236.66 284 237.32 284 238 C284.66 238.33 285.32 238.66 286 239 C285.67 239.99 285.34 240.98 285 242 C285.64363402 244.74302485 285.64363402 244.74302485 286.75 247.625 C287.09546875 248.60726562 287.4409375 249.58953125 287.796875 250.6015625 C288.81205144 253.32967574 288.81205144 253.32967574 292 254 C292.03738281 254.75023437 292.07476563 255.50046875 292.11328125 256.2734375 C292.17902344 257.29695313 292.24476563 258.32046875 292.3125 259.375 C292.37050781 260.37273437 292.42851563 261.37046875 292.48828125 262.3984375 C292.91323039 265.38930094 293.52476354 267.54036115 294.52734375 270.3359375 C296.64265462 277.0899093 296.37720471 283.95247491 296.28125 290.95117188 C296.24987387 293.25927873 296.24024356 295.56670004 296.234375 297.875 C296.22521041 299.35938326 296.21483638 300.84375965 296.203125 302.328125 C296.19887512 303.00949524 296.19462524 303.69086548 296.19024658 304.3928833 C296.13145381 308.35812887 295.71773657 312.10351029 295 316 C295 316.66 295 317.32 295 318 C294.34 318 293.68 318 293 318 C292.731875 319.19625 292.46375 320.3925 292.1875 321.625 C291.25912994 325.37855376 289.86951157 328.60088806 288 332 C287.34 332 286.68 332 286 332 C286 332.66 286 333.32 286 334 C286.66 334 287.32 334 288 334 C288 334.66 288 335.32 288 336 C287.34 336 286.68 336 286 336 C286 337.32 286 338.64 286 340 C285.34 340 284.68 340 284 340 C284 340.66 284 341.32 284 342 C283.34 342 282.68 342 282 342 C282 342.66 282 343.32 282 344 C281.01 344 280.02 344 279 344 C278.67 344.66 278.34 345.32 278 346 C277.34 346 276.68 346 276 346 C276 346.66 276 347.32 276 348 C275.34 348 274.68 348 274 348 C274 348.66 274 349.32 274 350 C273.01 350 272.02 350 271 350 C271 350.66 271 351.32 271 352 C270.34 352 269.68 352 269 352 C268.67 353.98 268.34 355.96 268 358 C267.34 358 266.68 358 266 358 C266 357.34 266 356.68 266 356 C265.34 356 264.68 356 264 356 C264 357.32 264 358.64 264 360 C262.02 360 260.04 360 258 360 C258 360.66 258 361.32 258 362 C257.34 362 256.68 362 256 362 C255.67 362.99 255.34 363.98 255 365 C251.9375 366.1875 251.9375 366.1875 249 367 C249 367.33 249 367.66 249 368 C247.02 368 245.04 368 243 368 C243 368.66 243 369.32 243 370 C241.68 370 240.36 370 239 370 C239 370.66 239 371.32 239 372 C238.21625 372.12375 237.4325 372.2475 236.625 372.375 C233.85942178 372.79117993 233.85942178 372.79117993 232 375 C229.375 374.625 229.375 374.625 227 374 C227 374.66 227 375.32 227 376 C224.69 376 222.38 376 220 376 C220 376.66 220 377.32 220 378 C217.36 378 214.72 378 212 378 C212 378.66 212 379.32 212 380 C211.39671875 380.04898437 210.7934375 380.09796875 210.171875 380.1484375 C209.37265625 380.22320312 208.5734375 380.29796875 207.75 380.375 C206.96109375 380.44460938 206.1721875 380.51421875 205.359375 380.5859375 C202.99111917 380.87554385 202.99111917 380.87554385 201.05859375 382.03515625 C198.36171042 383.29916039 196.27287563 383.16131094 193.3125 383.0625 C191.5423653 383.00857537 189.77083735 382.97951097 188 383 C187.67 383.33 187.34 383.66 187 384 C185.09756238 384.09391296 183.19161541 384.11743658 181.28686523 384.11352539 C180.0656749 384.11344986 178.84448456 384.11337433 177.58628845 384.11329651 C176.24372314 384.10818911 174.90115825 384.10297311 173.55859375 384.09765625 C172.19238842 384.09579199 170.82618243 384.09436813 169.4599762 384.09336853 C165.85798305 384.08954394 162.25603 384.07971417 158.65405273 384.06866455 C154.98096255 384.05844916 151.30786591 384.05387064 147.63476562 384.04882812 C140.42315877 384.03809184 133.211585 384.02101614 126 384 C126 383.34 126 382.68 126 382 C124.19402344 382.01740234 124.19402344 382.01740234 122.3515625 382.03515625 C120.77604321 382.04453434 119.20052225 382.05363452 117.625 382.0625 C116.8309375 382.07087891 116.036875 382.07925781 115.21875 382.08789062 C109.2265625 382.11328125 109.2265625 382.11328125 107 381 C105.33727297 380.79777644 103.66945815 380.63588613 102 380.5 C97.22222222 380.11111111 97.22222222 380.11111111 95 379 C93.54471484 378.84345538 92.08531217 378.72424452 90.625 378.625 C85.52668654 378.16821469 80.78543517 377.00780599 75.84765625 375.6953125 C73.32016733 375.07817529 70.89466923 374.66139444 68.3125 374.375 C65 374 65 374 64 373 C61.66702567 372.95907063 59.33294775 372.95758277 57 373 C56.67 372.34 56.34 371.68 56 371 C53.67258011 370.62761282 51.33764285 370.30163134 49 370 C44.86530207 368.93068157 40.93117818 367.66777256 37 366 C37 366.66 37 367.32 37 368 C35.35 368 33.7 368 32 368 C32.66 367.01 33.32 366.02 34 365 C31.69 364.67 29.38 364.34 27 364 C27 363.34 27 362.68 27 362 C25.02 362 23.04 362 21 362 C21 361.34 21 360.68 21 360 C20.319375 360.061875 19.63875 360.12375 18.9375 360.1875 C15.17043618 359.94704912 12.41915085 358.55415948 9 357 C7.67723944 356.62691369 6.34767923 356.26953585 5 356 C4.67 356.99 4.34 357.98 4 359 C3.01 358.01 2.02 357.02 1 356 C1.33 355.67 1.66 355.34 2 355 C1.34 354.67 0.68 354.34 0 354 C0 354.66 0 355.32 0 356 C-1.32 355.34 -2.64 354.68 -4 354 C-3.67 353.67 -3.34 353.34 -3 353 C-3.99 352.67 -4.98 352.34 -6 352 C-6 353.98 -6 355.96 -6 358 C-3.03 358.66 -0.06 359.32 3 360 C3 360.66 3 361.32 3 362 C4.32 361.67 5.64 361.34 7 361 C7 379.15 7 397.3 7 416 C5.35 416.66 3.7 417.32 2 418 C2 417.34 2 416.68 2 416 C0.35 415.67 -1.3 415.34 -3 415 C-3 414.01 -3 413.02 -3 412 C-3.598125 411.855625 -4.19625 411.71125 -4.8125 411.5625 C-6.56150404 411.1127561 -8.28677023 410.57107659 -10 410 C-10 409.34 -10 408.68 -10 408 C-12.31 407.67 -14.62 407.34 -17 407 C-17 406.01 -17 405.02 -17 404 C-18.32 404 -19.64 404 -21 404 C-21 403.34 -21 402.68 -21 402 C-21.99 402 -22.98 402 -24 402 C-24 401.34 -24 400.68 -24 400 C-25.98 400 -27.96 400 -30 400 C-30.33 398.68 -30.66 397.36 -31 396 C-31.99 396 -32.98 396 -34 396 C-34.33 395.67 -34.66 395.34 -35 395 C-35 395.33 -35 395.66 -35 396 C-36.65 396 -38.3 396 -40 396 C-40 395.34 -40 394.68 -40 394 C-39.34 394 -38.68 394 -38 394 C-38 393.34 -38 392.68 -38 392 C-38.99 392 -39.98 392 -41 392 C-41 391.34 -41 390.68 -41 390 C-42.32 390 -43.64 390 -45 390 C-45 389.34 -45 388.68 -45 388 C-45.8971875 388.3403125 -45.8971875 388.3403125 -46.8125 388.6875 C-47.534375 388.790625 -48.25625 388.89375 -49 389 C-50.75 387.5625 -50.75 387.5625 -52 386 C-52.33 386.66 -52.66 387.32 -53 388 C-53.33 386.68 -53.66 385.36 -54 384 C-54.66 384 -55.32 384 -56 384 C-56 383.34 -56 382.68 -56 382 C-57.65 382 -59.3 382 -61 382 C-61.33 380.68 -61.66 379.36 -62 378 C-63.32 378 -64.64 378 -66 378 C-66 377.34 -66 376.68 -66 376 C-66.99 376 -67.98 376 -69 376 C-69 375.34 -69 374.68 -69 374 C-70.32 374 -71.64 374 -73 374 C-73 373.34 -73 372.68 -73 372 C-74.65 372 -76.3 372 -78 372 C-78.66 370.68 -79.32 369.36 -80 368 C-80.99 368 -81.98 368 -83 368 C-83 367.34 -83 366.68 -83 366 C-85.31 365.67 -87.62 365.34 -90 365 C-90.33 364.01 -90.66 363.02 -91 362 C-91.66 362 -92.32 362 -93 362 C-93 361.34 -93 360.68 -93 360 C-95.31 359.67 -97.62 359.34 -100 359 C-100 358.01 -100 357.02 -100 356 C-101.32 356 -102.64 356 -104 356 C-104 355.34 -104 354.68 -104 354 C-105.32 354 -106.64 354 -108 354 C-108 353.34 -108 352.68 -108 352 C-109.98 352 -111.96 352 -114 352 C-114 350.68 -114 349.36 -114 348 C-115.32 348 -116.64 348 -118 348 C-118 347.34 -118 346.68 -118 346 C-118.66 346 -119.32 346 -120 346 C-120 345.34 -120 344.68 -120 344 C-121.32 344 -122.64 344 -124 344 C-124 343.34 -124 342.68 -124 342 C-124.763125 341.855625 -125.52625 341.71125 -126.3125 341.5625 C-129 341 -129 341 -132 340 C-132 339.34 -132 338.68 -132 338 C-132.99 338 -133.98 338 -135 338 C-135 337.34 -135 336.68 -135 336 C-136.32 336 -137.64 336 -139 336 C-139 335.34 -139 334.68 -139 334 C-139.99 334 -140.98 334 -142 334 C-142 333.34 -142 332.68 -142 332 C-142.99 332 -143.98 332 -145 332 C-145 331.34 -145 330.68 -145 330 C-146.32 330 -147.64 330 -149 330 C-149 329.34 -149 328.68 -149 328 C-149.99 328 -150.98 328 -152 328 C-152 327.34 -152 326.68 -152 326 C-153.32 326 -154.64 326 -156 326 C-156 325.34 -156 324.68 -156 324 C-156.721875 324.0825 -157.44375 324.165 -158.1875 324.25 C-162.03640184 323.90787539 -163.3087335 322.76027333 -166 320 C-169.96365923 314.07195571 -170.61112705 308.66430435 -170.64453125 301.6640625 C-170.66343918 300.70349945 -170.68234711 299.7429364 -170.701828 298.75326538 C-170.73812877 296.73815786 -170.76536165 294.7228684 -170.78393555 292.70751953 C-170.81261115 289.61300536 -170.86773417 286.51983244 -170.92773438 283.42578125 C-170.95985281 281.46356595 -170.9905043 279.50132597 -171.01953125 277.5390625 C-171.0340181 276.61203522 -171.04850494 275.68500793 -171.06343079 274.72988892 C-171.0706163 273.87494843 -171.07780182 273.02000793 -171.08520508 272.13916016 C-171.09708611 271.00953354 -171.09708611 271.00953354 -171.10920715 269.85708618 C-171 268 -171 268 -170 266 C-168.68 266.66 -167.36 267.32 -166 268 C-166 268.66 -166 269.32 -166 270 C-165.34 270 -164.68 270 -164 270 C-164 270.66 -164 271.32 -164 272 C-162.02 272.66 -160.04 273.32 -158 274 C-158 274.66 -158 275.32 -158 276 C-157.01 276.33 -156.02 276.66 -155 277 C-154.505 278.485 -154.505 278.485 -154 280 C-150.99152582 281.22520264 -150.99152582 281.22520264 -148 282 C-148 282.66 -148 283.32 -148 284 C-147.01 283.67 -146.02 283.34 -145 283 C-145 283.99 -145 284.98 -145 286 C-143.68 286.33 -142.36 286.66 -141 287 C-140.67 286.01 -140.34 285.02 -140 284 C-139.34 284 -138.68 284 -138 284 C-138.33 285.98 -138.66 287.96 -139 290 C-138.01 290 -137.02 290 -136 290 C-136 290.66 -136 291.32 -136 292 C-134.35 292 -132.7 292 -131 292 C-131 293.32 -131 294.64 -131 296 C-130.38125 296.144375 -129.7625 296.28875 -129.125 296.4375 C-127 297 -127 297 -125 298 C-125 298.66 -125 299.32 -125 300 C-123.68 299.67 -122.36 299.34 -121 299 C-121 299.99 -121 300.98 -121 302 C-119.68 302 -118.36 302 -117 302 C-117 302.66 -117 303.32 -117 304 C-115.35 304 -113.7 304 -112 304 C-112.88214887 301.11785113 -112.88214887 301.11785113 -114 299 C-115.97888961 298.27306096 -117.97954558 297.60183749 -120 297 C-120 296.01 -120 295.02 -120 294 C-121.093125 293.855625 -122.18625 293.71125 -123.3125 293.5625 C-127 293 -127 293 -130 292 C-130 291.34 -130 290.68 -130 290 C-130.66 290 -131.32 290 -132 290 C-133.33203125 288.57421875 -133.33203125 288.57421875 -134.8125 286.6875 C-137.27554567 283.68585221 -139.59196428 281.90449055 -143 280 C-143 279.34 -143 278.68 -143 278 C-143.99 278 -144.98 278 -146 278 C-146 277.34 -146 276.68 -146 276 C-146.66 276 -147.32 276 -148 276 C-148 276.66 -148 277.32 -148 278 C-149.65 277.67 -151.3 277.34 -153 277 C-151.68 276.67 -150.36 276.34 -149 276 C-149 275.34 -149 274.68 -149 274 C-149.99 274.33 -150.98 274.66 -152 275 C-152.6496875 274.319375 -152.6496875 274.319375 -153.3125 273.625 C-156.37803403 270.67300427 -157.64820859 270 -162 270 C-161 268 -161 268 -160 267 C-161.32 266.67 -162.64 266.34 -164 266 C-164 264.68 -164 263.36 -164 262 C-165.98 262 -167.96 262 -170 262 C-169.67 260.68 -169.34 259.36 -169 258 C-169.99 258 -170.98 258 -172 258 C-172 257.34 -172 256.68 -172 256 C-172.99 255.67 -173.98 255.34 -175 255 C-175.33 254.01 -175.66 253.02 -176 252 C-176.66 251.835 -177.32 251.67 -178 251.5 C-178.66 251.335 -179.32 251.17 -180 251 C-180.33 250.01 -180.66 249.02 -181 248 C-181.66 248 -182.32 248 -183 248 C-183 247.34 -183 246.68 -183 246 C-183.99 246 -184.98 246 -186 246 C-186 245.34 -186 244.68 -186 244 C-186.8971875 243.7834375 -186.8971875 243.7834375 -187.8125 243.5625 C-189.56150404 243.1127561 -191.28677023 242.57107659 -193 242 C-192.67 240.68 -192.34 239.36 -192 238 C-193.32 237.67 -194.64 237.34 -196 237 C-196 236.01 -196 235.02 -196 234 C-196.66 234 -197.32 234 -198 234 C-198 233.34 -198 232.68 -198 232 C-199.32 231.67 -200.64 231.34 -202 231 C-202 230.01 -202 229.02 -202 228 C-202.99 227.67 -203.98 227.34 -205 227 C-205.33 226.01 -205.66 225.02 -206 224 C-206.66 224 -207.32 224 -208 224 C-208 223.34 -208 222.68 -208 222 C-208.66 222 -209.32 222 -210 222 C-210 221.34 -210 220.68 -210 220 C-211.32 219.67 -212.64 219.34 -214 219 C-214 217.35 -214 215.7 -214 214 C-214.99 214 -215.98 214 -217 214 C-217 213.34 -217 212.68 -217 212 C-217.66 212 -218.32 212 -219 212 C-219.639375 211.01 -220.27875 210.02 -220.9375 209 C-221.618125 208.01 -222.29875 207.02 -223 206 C-223.99 206 -224.98 206 -226 206 C-226 204.02 -226 202.04 -226 200 C-227.32 200 -228.64 200 -230 200 C-231.125 196.25 -231.125 196.25 -230 194 C-231.32 194 -232.64 194 -234 194 C-234.103125 193.236875 -234.20625 192.47375 -234.3125 191.6875 C-235.05067115 188.80192188 -235.62140803 187.73820183 -238 186 C-238.99 186 -239.98 186 -241 186 C-241 185.34 -241 184.68 -241 184 C-240.34 184 -239.68 184 -239 184 C-239 183.34 -239 182.68 -239 182 C-239.66 181.67 -240.32 181.34 -241 181 C-241.625 178.4375 -241.625 178.4375 -242 176 C-243.32 176.33 -244.64 176.66 -246 177 C-245.814375 176.360625 -245.62875 175.72125 -245.4375 175.0625 C-245.293125 174.381875 -245.14875 173.70125 -245 173 C-245.33 172.67 -245.66 172.34 -246 172 C-246 171.34 -246 170.68 -246 170 C-246.66 169.67 -247.32 169.34 -248 169 C-248 167.35 -248 165.7 -248 164 C-248.66 164 -249.32 164 -250 164 C-250.33 163.01 -250.66 162.02 -251 161 C-251.99 161.33 -252.98 161.66 -254 162 C-254 160.68 -254 159.36 -254 158 C-253.34 158 -252.68 158 -252 158 C-252 157.34 -252 156.68 -252 156 C-253.32 156 -254.64 156 -256 156 C-255.773125 155.319375 -255.54625 154.63875 -255.3125 153.9375 C-254.95789552 150.60421785 -255.84080957 148.89294988 -257.18725586 145.89819336 C-263.80477551 130.44273669 -264.6876991 110.45339272 -262 94 C-260.95703125 91.625 -260.95703125 91.625 -260 90 C-260.66 89.67 -261.32 89.34 -262 89 C-260.515 88.505 -260.515 88.505 -259 88 C-258.89558594 87.15050781 -258.79117188 86.30101562 -258.68359375 85.42578125 C-257.93568462 81.67768805 -256.67919189 78.64619292 -255.0625 75.1875 C-254.27552734 73.47626953 -254.27552734 73.47626953 -253.47265625 71.73046875 C-252 69 -252 69 -250 68 C-249.34786708 65.97536745 -249.34786708 65.97536745 -249 64 C-248.01 64 -247.02 64 -246 64 C-246 62.02 -246 60.04 -246 58 C-245.34 58 -244.68 58 -244 58 C-244 57.34 -244 56.68 -244 56 C-242.35 56 -240.7 56 -239 56 C-239 54.68 -239 53.36 -239 52 C-239 51.34 -239 50.68 -239 50 C-238.01 50 -237.02 50 -236 50 C-235.34 49.34 -234.68 48.68 -234 48 C-232.68 48 -231.36 48 -230 48 C-230 47.34 -230 46.68 -230 46 C-229.01 46 -228.02 46 -227 46 C-227.66 45.34 -228.32 44.68 -229 44 C-229.33 43.34 -229.66 42.68 -230 42 C-228.68 42 -227.36 42 -226 42 C-225.67 42.33 -225.34 42.66 -225 43 C-224.67 42.01 -224.34 41.02 -224 40 C-221.36 40 -218.72 40 -216 40 C-216 39.34 -216 38.68 -216 38 C-215.01 38 -214.02 38 -213 38 C-213.495 36.02 -213.495 36.02 -214 34 C-212.68 34 -211.36 34 -210 34 C-210 34.66 -210 35.32 -210 36 C-209.34 36 -208.68 36 -208 36 C-208 35.34 -208 34.68 -208 34 C-206.68 34 -205.36 34 -204 34 C-203.34 32.02 -202.68 30.04 -202 28 C-201.34 28 -200.68 28 -200 28 C-200 28.66 -200 29.32 -200 30 C-197.36 30 -194.72 30 -192 30 C-192 29.34 -192 28.68 -192 28 C-190.865625 27.855625 -189.73125 27.71125 -188.5625 27.5625 C-185.19222799 27.38828522 -185.19222799 27.38828522 -184 26 C-181.9427083 25.68076508 -179.88386479 25.48838648 -177.8125 25.28125 C-175.9832467 25.18001957 -175.9832467 25.18001957 -175 24 C-173.35892758 23.79160985 -171.71143707 23.63248275 -170.0625 23.5 C-166.39442535 23.24785057 -166.39442535 23.24785057 -163 22 C-159.77385576 21.73634236 -156.55452624 21.5556966 -153.32226562 21.39453125 C-149.86745986 21.49806566 -149.86745986 21.49806566 -147 20 C-143.97022196 19.91128727 -140.96332978 19.8848065 -137.93359375 19.90234375 C-137.02497086 19.9037587 -136.11634796 19.90517365 -135.18019104 19.90663147 C-132.26592779 19.91224807 -129.35174019 19.92480335 -126.4375 19.9375 C-124.46679798 19.94251286 -122.49609476 19.94707614 -120.52539062 19.95117188 C-115.68356441 19.96222289 -110.84179505 19.97949862 -106 20 C-105.67 20.66 -105.34 21.32 -105 22 C-108.8056322 24.46716838 -112.79779741 24.40251973 -117.1875 24.5625 C-121.97680804 24.3322347 -121.97680804 24.3322347 -126 26 C-128.65463121 26.45459858 -131.32189138 26.70243238 -134 27 C-134 27.99 -134 28.98 -134 30 C-136.33333333 30 -138.66666667 30 -141 30 C-141 30.66 -141 31.32 -141 32 C-142.65 32 -144.3 32 -146 32 C-146 31.34 -146 30.68 -146 30 C-146.66 30 -147.32 30 -148 30 C-148 30.66 -148 31.32 -148 32 C-148.61875 32.28875 -149.2375 32.5775 -149.875 32.875 C-152.13325765 33.93720042 -152.13325765 33.93720042 -154 36 C-155.32 36 -156.64 36 -158 36 C-158.495 36.99 -158.495 36.99 -159 38 C-160.99226169 38.28919928 -162.98722182 38.57264551 -164.9921875 38.75390625 C-167.20329268 38.9575063 -167.20329268 38.9575063 -170 40 C-170.67156616 41.93618425 -170.67156616 41.93618425 -171 44 C-171.495 44.99 -171.495 44.99 -172 46 C-172.66 46 -173.32 46 -174 46 C-174 46.66 -174 47.32 -174 48 C-174.66 48 -175.32 48 -176 48 C-176 48.66 -176 49.32 -176 50 C-176.66 50 -177.32 50 -178 50 C-178 50.66 -178 51.32 -178 52 C-178.99 52 -179.98 52 -181 52 C-181 51.34 -181 50.68 -181 50 C-181.66 50 -182.32 50 -183 50 C-183 50.66 -183 51.32 -183 52 C-183.66 52 -184.32 52 -185 52 C-184.505 53.98 -184.505 53.98 -184 56 C-185.65 56 -187.3 56 -189 56 C-190.87543354 59.86763446 -190.87543354 59.86763446 -190 64 C-191.32 64 -192.64 64 -194 64 C-194.19335938 64.67546875 -194.38671875 65.3509375 -194.5859375 66.046875 C-194.84632813 66.93890625 -195.10671875 67.8309375 -195.375 68.75 C-195.63023437 69.63171875 -195.88546875 70.5134375 -196.1484375 71.421875 C-196.9209934 73.76080572 -197.83625676 75.83442562 -199 78 C-198.01 78 -197.02 78 -196 78 C-196.99 79.98 -196.99 79.98 -198 82 C-198.99 82 -199.98 82 -201 82 C-201.05893685 85.9374352 -201.09390669 89.87475427 -201.125 93.8125 C-201.14175781 94.91271484 -201.15851563 96.01292969 -201.17578125 97.14648438 C-201.21813455 104.32536862 -200.56258545 110.99126695 -199 118 C-198.34 118 -197.68 118 -197 118 C-197.04125 118.78375 -197.0825 119.5675 -197.125 120.375 C-197.28728734 123.16116119 -197.28728734 123.16116119 -195 125 C-194.875 127.625 -194.875 127.625 -195 130 C-194.34 130.33 -193.68 130.66 -193 131 C-193.33 131.99 -193.66 132.98 -194 134 C-193.34 134 -192.68 134 -192 134 C-192 135.32 -192 136.64 -192 138 C-190.68 138 -189.36 138 -188 138 C-188 138.66 -188 139.32 -188 140 C-188.66 140 -189.32 140 -190 140 C-190 140.66 -190 141.32 -190 142 C-189.01 142 -188.02 142 -187 142 C-187.33 143.32 -187.66 144.64 -188 146 C-187.34 146 -186.68 146 -186 146 C-185.66226563 146.61488281 -185.32453125 147.22976562 -184.9765625 147.86328125 C-184.53054687 148.67152344 -184.08453125 149.47976562 -183.625 150.3125 C-183.18414062 151.11300781 -182.74328125 151.91351563 -182.2890625 152.73828125 C-181.26486665 154.53527943 -180.14732862 156.27900708 -179 158 C-178.375 160.1875 -178.375 160.1875 -178 162 C-176.35 162 -174.7 162 -173 162 C-172.4375 163.9375 -172.4375 163.9375 -172 166 C-172.33 166.33 -172.66 166.66 -173 167 C-170.69 168.32 -168.38 169.64 -166 171 C-166.99 171.33 -167.98 171.66 -169 172 C-167.18777466 174.0624994 -167.18777466 174.0624994 -165 176 C-164.01 176 -163.02 176 -162 176 C-162 177.32 -162 178.64 -162 180 C-160.36526484 183.12474627 -160.36526484 183.12474627 -157.875 183.6875 C-156.946875 183.8421875 -156.946875 183.8421875 -156 184 C-156 184.66 -156 185.32 -156 186 C-155.34 186 -154.68 186 -154 186 C-153.67 187.98 -153.34 189.96 -153 192 C-152.34 192 -151.68 192 -151 192 C-151 192.66 -151 193.32 -151 194 C-149.35 194 -147.7 194 -146 194 C-147.9254644 191.7763932 -147.9254644 191.7763932 -151 191 C-150.67 188.69 -150.34 186.38 -150 184 C-150.66 184 -151.32 184 -152 184 C-152 183.34 -152 182.68 -152 182 C-152.99 182 -153.98 182 -155 182 C-155.33 180.68 -155.66 179.36 -156 178 C-156.66 178 -157.32 178 -158 178 C-158 177.34 -158 176.68 -158 176 C-158.61875 175.87625 -159.2375 175.7525 -159.875 175.625 C-162 175 -162 175 -164 173 C-164.125 170.375 -164.125 170.375 -164 168 C-164.598125 167.938125 -165.19625 167.87625 -165.8125 167.8125 C-168.95524351 166.64519527 -169.53862714 164.96339278 -171 162 C-171.33625793 159.31312561 -171.33625793 159.31312561 -171.28051758 156.38696289 C-171.25982964 154.73483543 -171.25982964 154.73483543 -171.23872375 153.04933167 C-171.20764023 151.86902878 -171.1765567 150.68872589 -171.14453125 149.47265625 C-171.12283371 148.25098251 -171.10113617 147.02930878 -171.07878113 145.77061462 C-171.02954511 143.1891289 -170.97274544 140.60777793 -170.90893555 138.02661133 C-170.8129508 134.08103062 -170.74345086 130.13564176 -170.67773438 126.18945312 C-170.62657368 123.67965493 -170.57388996 121.16988722 -170.51953125 118.66015625 C-170.48808769 116.89273827 -170.48808769 116.89273827 -170.45600891 115.08961487 C-170.42645615 113.9850444 -170.39690338 112.88047394 -170.36645508 111.74243164 C-170.34408279 110.77600235 -170.32171051 109.80957306 -170.29866028 108.81385803 C-169.96400304 105.660851 -169.09743212 102.9663658 -168 100 C-167.01 100 -166.02 100 -165 100 C-165 99.34 -165 98.68 -165 98 C-164.34 98 -163.68 98 -163 98 C-163 97.34 -163 96.68 -163 96 C-162.01 96 -161.02 96 -160 96 C-160 95.34 -160 94.68 -160 94 C-158.68 94 -157.36 94 -156 94 C-155.505 92.515 -155.505 92.515 -155 91 C-154.34 91.33 -153.68 91.66 -153 92 C-153 91.34 -153 90.68 -153 90 C-151.68 90 -150.36 90 -149 90 C-149 89.34 -149 88.68 -149 88 C-148.01 88 -147.02 88 -146 88 C-146 87.34 -146 86.68 -146 86 C-144 84 -144 84 -141.375 83.875 C-140.59125 83.91625 -139.8075 83.9575 -139 84 C-139 83.34 -139 82.68 -139 82 C-137.68 82 -136.36 82 -135 82 C-135 81.34 -135 80.68 -135 80 C-134.01 80 -133.02 80 -132 80 C-132 79.34 -132 78.68 -132 78 C-128.77208445 75.8480563 -127.71599191 75.79913557 -124 76 C-123.67 74.68 -123.34 73.36 -123 72 C-121.35 72 -119.7 72 -118 72 C-118 71.34 -118 70.68 -118 70 C-116.68 70 -115.36 70 -114 70 C-114 69.34 -114 68.68 -114 68 C-113.01 67.67 -112.02 67.34 -111 67 C-110.01 65.515 -110.01 65.515 -109 64 C-106.375 63.8125 -106.375 63.8125 -104 64 C-104 63.34 -104 62.68 -104 62 C-102.68 62 -101.36 62 -100 62 C-100 61.34 -100 60.68 -100 60 C-97.35261084 58.5393715 -96.10551666 58 -93 58 C-93 57.34 -93 56.68 -93 56 C-92.01 55.34 -91.02 54.68 -90 54 C-90 53.34 -90 52.68 -90 52 C-88.35 52.33 -86.7 52.66 -85 53 C-83.87379394 56.37861819 -83.87414696 58.92826011 -83.87301636 62.49072266 C-83.87145637 63.15270472 -83.86989638 63.81468678 -83.86828911 64.4967289 C-83.86429433 66.71919595 -83.86746288 68.94159492 -83.87060547 71.1640625 C-83.86925075 72.75567668 -83.86747042 74.34729054 -83.86529541 75.93890381 C-83.86072944 80.26524369 -83.86250722 84.59155978 -83.8656745 88.91790009 C-83.8682024 93.44087286 -83.86585935 97.96384356 -83.86428833 102.48681641 C-83.8624679 110.08301154 -83.86486965 117.67919696 -83.86962891 125.27539062 C-83.87507128 134.06350546 -83.87330854 142.8515971 -83.8678025 151.63971138 C-83.86326779 159.17861187 -83.86262258 166.71750537 -83.86524117 174.25640678 C-83.86680196 178.76186376 -83.86700309 183.26730983 -83.86370468 187.77276611 C-83.86082079 192.00802957 -83.86281126 196.24326305 -83.86859894 200.47852325 C-83.86992374 202.03499553 -83.86953714 203.59147031 -83.86733627 205.14794159 C-83.86461383 207.26842116 -83.86801937 209.38880398 -83.87301636 211.50927734 C-83.8735819 213.29125015 -83.8735819 213.29125015 -83.87415886 215.10922241 C-84 218 -84 218 -85 221 C-86.65 220.67 -88.3 220.34 -90 220 C-90 219.34 -90 218.68 -90 218 C-90.66 218 -91.32 218 -92 218 C-92 217.34 -92 216.68 -92 216 C-92.66 216 -93.32 216 -94 216 C-93.67 214.68 -93.34 213.36 -93 212 C-93.66 212 -94.32 212 -95 212 C-95 211.34 -95 210.68 -95 210 C-95.99 210 -96.98 210 -98 210 C-98 208.68 -98 207.36 -98 206 C-99.32 206 -100.64 206 -102 206 C-102 204.02 -102 202.04 -102 200 C-102.66 200 -103.32 200 -104 200 C-104 199.34 -104 198.68 -104 198 C-104.99 198 -105.98 198 -107 198 C-107.33 196.68 -107.66 195.36 -108 194 C-109.32 194 -110.64 194 -112 194 C-112 193.34 -112 192.68 -112 192 C-113.65 192 -115.3 192 -117 192 C-117.33 193.32 -117.66 194.64 -118 196 C-118.66 196 -119.32 196 -120 196 C-120 196.66 -120 197.32 -120 198 C-120.99 198.33 -121.98 198.66 -123 199 C-122.34 199.99 -121.68 200.98 -121 202 C-120.60986284 203.9896995 -120.26797351 205.99019869 -120 208 C-118.68 208.33 -117.36 208.66 -116 209 C-116 209.99 -116 210.98 -116 212 C-114.02 212 -112.04 212 -110 212 C-110.33 214.64 -110.66 217.28 -111 220 C-112.32 220 -113.64 220 -115 220 C-115.33 218.68 -115.66 217.36 -116 216 C-116.66 216 -117.32 216 -118 216 C-118 215.34 -118 214.68 -118 214 C-118.99 214 -119.98 214 -121 214 C-121 213.34 -121 212.68 -121 212 C-122.65 212 -124.3 212 -126 212 C-126 212.66 -126 213.32 -126 214 C-125.34 214 -124.68 214 -124 214 C-124 214.66 -124 215.32 -124 216 C-123.34 216 -122.68 216 -122 216 C-122 216.66 -122 217.32 -122 218 C-121.34 218 -120.68 218 -120 218 C-120 219.32 -120 220.64 -120 222 C-119.01 222 -118.02 222 -117 222 C-117 222.66 -117 223.32 -117 224 C-116.34 224 -115.68 224 -115 224 C-115 224.66 -115 225.32 -115 226 C-111.94736336 226.98120464 -110.05263664 226.98120464 -107 226 C-106 229 -106 229 -107 232 C-106.34 232 -105.68 232 -105 232 C-105 232.66 -105 233.32 -105 234 C-103.68 234 -102.36 234 -101 234 C-101 234.66 -101 235.32 -101 236 C-99.35 236 -97.7 236 -96 236 C-95.67 236.66 -95.34 237.32 -95 238 C-94.01 238 -93.02 238 -92 238 C-92 238.66 -92 239.32 -92 240 C-91.34 240 -90.68 240 -90 240 C-90 240.66 -90 241.32 -90 242 C-89.01 241.67 -88.02 241.34 -87 241 C-86.67 241.99 -86.34 242.98 -86 244 C-86.33 244.66 -86.66 245.32 -87 246 C-86.01 246 -85.02 246 -84 246 C-84 246.66 -84 247.32 -84 248 C-81.69 248 -79.38 248 -77 248 C-77 247.34 -77 246.68 -77 246 C-76.01 246 -75.02 246 -74 246 C-74 246.66 -74 247.32 -74 248 C-74.66 248 -75.32 248 -76 248 C-76.33 248.99 -76.66 249.98 -77 251 C-76.01 251.33 -75.02 251.66 -74 252 C-74 252.66 -74 253.32 -74 254 C-73.01 253.67 -72.02 253.34 -71 253 C-71 253.99 -71 254.98 -71 256 C-67.62182575 256.84454356 -65.32534757 257.10844919 -62 256 C-62 256.66 -62 257.32 -62 258 C-61.34 258 -60.68 258 -60 258 C-60.33 259.32 -60.66 260.64 -61 262 C-60.4225 262.144375 -59.845 262.28875 -59.25 262.4375 C-57.16666667 262.95833333 -55.08333333 263.47916667 -53 264 C-53 264.66 -53 265.32 -53 266 C-52.01 266 -51.02 266 -50 266 C-50 266.66 -50 267.32 -50 268 C-49.236875 268.144375 -48.47375 268.28875 -47.6875 268.4375 C-45 269 -45 269 -42 270 C-42 270.66 -42 271.32 -42 272 C-40.35 271.01 -38.7 270.02 -37 269 C-38.32 268.67 -39.64 268.34 -41 268 C-40.67 266.68 -40.34 265.36 -40 264 C-40.763125 263.855625 -41.52625 263.71125 -42.3125 263.5625 C-45 263 -45 263 -48 262 C-48 261.34 -48 260.68 -48 260 C-49.65 260 -51.3 260 -53 260 C-53 259.34 -53 258.68 -53 258 C-55.31 257.67 -57.62 257.34 -60 257 C-60 256.01 -60 255.02 -60 254 C-60.99 254.33 -61.98 254.66 -63 255 C-63 254.01 -63 253.02 -63 252 C-63.66 252 -64.32 252 -65 252 C-65 251.34 -65 250.68 -65 250 C-64.34 250 -63.68 250 -63 250 C-63 248.68 -63 247.36 -63 246 C-62.34 245.34 -61.68 244.68 -61 244 C-60.67 243.34 -60.34 242.68 -60 242 C-58.68 242 -57.36 242 -56 242 C-56 241.34 -56 240.68 -56 240 C-55.34 240 -54.68 240 -54 240 C-53.01 236.04 -53.01 236.04 -52 232 C-50.68 232 -49.36 232 -48 232 C-47.87625 231.05125 -47.7525 230.1025 -47.625 229.125 C-47 226 -47 226 -45 224 C-44.01 224 -43.02 224 -42 224 C-42 223.34 -42 222.68 -42 222 C-41.34 222 -40.68 222 -40 222 C-39.67 220.35 -39.34 218.7 -39 217 C-38.38125 216.95875 -37.7625 216.9175 -37.125 216.875 C-36.073125 216.441875 -36.073125 216.441875 -35 216 C-33.6954344 213.00384054 -33.6954344 213.00384054 -33 210 C-32.34 210 -31.68 210 -31 210 C-30.67 208.68 -30.34 207.36 -30 206 C-29.34 206 -28.68 206 -28 206 C-27.67 205.01 -27.34 204.02 -27 203 C-26.01 202.67 -25.02 202.34 -24 202 C-24.33 200.02 -24.66 198.04 -25 196 C-25.99 196 -26.98 196 -28 196 C-28 195.34 -28 194.68 -28 194 C-29.32 194 -30.64 194 -32 194 C-32 193.34 -32 192.68 -32 192 C-33.32 192 -34.64 192 -36 192 C-36 192.66 -36 193.32 -36 194 C-36.99 194 -37.98 194 -39 194 C-39.33 195.32 -39.66 196.64 -40 198 C-40.66 198 -41.32 198 -42 198 C-42 198.66 -42 199.32 -42 200 C-43.32 200 -44.64 200 -46 200 C-46 201.32 -46 202.64 -46 204 C-46.99 204 -47.98 204 -49 204 C-49.33 205.98 -49.66 207.96 -50 210 C-50.99 210 -51.98 210 -53 210 C-53 210.66 -53 211.32 -53 212 C-53.66 212 -54.32 212 -55 212 C-55 212.66 -55 213.32 -55 214 C-55.66 214 -56.32 214 -57 214 C-57 214.66 -57 215.32 -57 216 C-57.66 216 -58.32 216 -59 216 C-59.33 217.98 -59.66 219.96 -60 222 C-61.32 222 -62.64 222 -64 222 C-64 161.94 -64 101.88 -64 40 C-63.34 40 -62.68 40 -62 40 C-62 39.34 -62 38.68 -62 38 C-59.22157405 35.22157405 -57.21633419 34.05528792 -53.25 33.875 C-52.5075 33.91625 -51.765 33.9575 -51 34 C-51 33.34 -51 32.68 -51 32 C-50.01 32 -49.02 32 -48 32 C-48 31.34 -48 30.68 -48 30 C-47.01 30 -46.02 30 -45 30 C-45 29.34 -45 28.68 -45 28 C-44.01 28 -43.02 28 -42 28 C-42 27.34 -42 26.68 -42 26 C-40.68 26 -39.36 26 -38 26 C-38 25.34 -38 24.68 -38 24 C-36.68 24 -35.36 24 -34 24 C-34 23.34 -34 22.68 -34 22 C-33.01 22 -32.02 22 -31 22 C-31 21.34 -31 20.68 -31 20 C-30.01 20 -29.02 20 -28 20 C-27.67 19.01 -27.34 18.02 -27 17 C-24.03 16.505 -24.03 16.505 -21 16 C-21 15.34 -21 14.68 -21 14 C-20.01 14 -19.02 14 -18 14 C-18 13.34 -18 12.68 -18 12 C-14.77208445 9.8480563 -13.71599191 9.79913557 -10 10 C-10 9.34 -10 8.68 -10 8 C-8.68 8 -7.36 8 -6 8 C-6 7.34 -6 6.68 -6 6 C-5.34 6 -4.68 6 -4 6 C-3.67 5.01 -3.34 4.02 -3 3 C-2.01 3.33 -1.02 3.66 0 4 C0 2.68 0 1.36 0 0 Z M-173 42 C-172 44 -172 44 -172 44 Z M-176 44 C-175.34 44.66 -174.68 45.32 -174 46 C-174 45.34 -174 44.68 -174 44 C-174.66 44 -175.32 44 -176 44 Z M-181 48 C-181 48.66 -181 49.32 -181 50 C-180.34 49.67 -179.68 49.34 -179 49 C-179.66 48.67 -180.32 48.34 -181 48 Z M-200 78 C-199 80 -199 80 -199 80 Z M241 180 C242 182 242 182 242 182 Z M-146 190 C-145 192 -145 192 -145 192 Z M-145 194 C-145.66 195.32 -146.32 196.64 -147 198 C-146.34 198 -145.68 198 -145 198 C-145 198.66 -145 199.32 -145 200 C-144.34 200 -143.68 200 -143 200 C-142.34 201.32 -141.68 202.64 -141 204 C-139.35 204 -137.7 204 -136 204 C-136 205.32 -136 206.64 -136 208 C-135.34 208 -134.68 208 -134 208 C-134 207.34 -134 206.68 -134 206 C-133.34 206 -132.68 206 -132 206 C-132 207.98 -132 209.96 -132 212 C-131.34 212 -130.68 212 -130 212 C-130 211.34 -130 210.68 -130 210 C-129.34 210 -128.68 210 -128 210 C-127.67 210.66 -127.34 211.32 -127 212 C-127.62759865 209.07120629 -128.58622659 206.63904371 -130 204 C-130.99 204 -131.98 204 -133 204 C-132.67 203.34 -132.34 202.68 -132 202 C-132.66 202 -133.32 202 -134 202 C-134 201.34 -134 200.68 -134 200 C-134.66 200 -135.32 200 -136 200 C-136 199.34 -136 198.68 -136 198 C-136.66 198 -137.32 198 -138 198 C-138 198.66 -138 199.32 -138 200 C-138.66 200 -139.32 200 -140 200 C-140 199.34 -140 198.68 -140 198 C-140.66 197.67 -141.32 197.34 -142 197 C-141.67 196.01 -141.34 195.02 -141 194 C-142.32 194 -143.64 194 -145 194 Z M-140 196 C-139 198 -139 198 -139 198 Z M-129 212 C-128 214 -128 214 -128 214 Z M-128 214 C-128 214.66 -128 215.32 -128 216 C-127.34 216 -126.68 216 -126 216 C-126 215.34 -126 214.68 -126 214 C-126.66 214 -127.32 214 -128 214 Z M-125 216 C-124 218 -124 218 -124 218 Z M-109 228 C-108 230 -108 230 -108 230 Z M282 237 C282.33 237.99 282.66 238.98 283 240 C283 239.01 283 238.02 283 237 C282.67 237 282.34 237 282 237 Z M-93 240 C-92 242 -92 242 -92 242 Z M290 256 C291 258 291 258 291 258 Z M-64 258 C-64 258.66 -64 259.32 -64 260 C-63.34 259.67 -62.68 259.34 -62 259 C-62.66 258.67 -63.32 258.34 -64 258 Z M-34 270 C-34 270.66 -34 271.32 -34 272 C-34.66 272 -35.32 272 -36 272 C-36 272.66 -36 273.32 -36 274 C-35.34 274 -34.68 274 -34 274 C-34 274.66 -34 275.32 -34 276 C-32.1746875 276.680625 -32.1746875 276.680625 -30.3125 277.375 C-29.58160156 277.65085937 -28.85070312 277.92671875 -28.09765625 278.2109375 C-26.48552368 278.81736353 -24.86871716 279.41137558 -23.25 280 C-21 281 -21 281 -19 282.625 C-16.51246105 284.33518303 -14.95602718 284.2463356 -12 284 C-12 284.66 -12 285.32 -12 286 C-10.02 286 -8.04 286 -6 286 C-6 286.66 -6 287.32 -6 288 C-5.34 288 -4.68 288 -4 288 C-3.505 288.99 -3.505 288.99 -3 290 C-2.34 289.67 -1.68 289.34 -1 289 C-0.505 287.515 -0.505 287.515 0 286 C0.66 286 1.32 286 2 286 C2 285.34 2 284.68 2 284 C1.401875 283.87625 0.80375 283.7525 0.1875 283.625 C-2 283 -2 283 -5 281 C-7.32387947 280.60612212 -9.65793749 280.26513915 -12 280 C-12 279.34 -12 278.68 -12 278 C-13.32 278 -14.64 278 -16 278 C-16 277.34 -16 276.68 -16 276 C-17.65 276 -19.3 276 -21 276 C-21 275.34 -21 274.68 -21 274 C-22.65 274.66 -24.3 275.32 -26 276 C-26 275.34 -26 274.68 -26 274 C-25.34 274 -24.68 274 -24 274 C-24 273.34 -24 272.68 -24 272 C-27.50776784 270.39644899 -30.14354879 269.77963136 -34 270 Z M255 270 C256 272 256 272 256 272 Z M254 272 C255 274 255 274 255 274 Z M-130 288 C-129 290 -129 290 -129 290 Z M-128 290 C-127.34 290.66 -126.68 291.32 -126 292 C-126 291.34 -126 290.68 -126 290 C-126.66 290 -127.32 290 -128 290 Z M-109 302 C-108 304 -108 304 -108 304 Z M-112 304 C-111.34 304.66 -110.68 305.32 -110 306 C-110 305.34 -110 304.68 -110 304 C-110.66 304 -111.32 304 -112 304 Z M-107 305 C-107.66 306.32 -108.32 307.64 -109 309 C-106.28817788 311.60334924 -105.10866187 311.99456691 -101.25 312.1875 C-99.64125 312.0946875 -99.64125 312.0946875 -98 312 C-98 313.32 -98 314.64 -98 316 C-96.68 316 -95.36 316 -94 316 C-94 316.66 -94 317.32 -94 318 C-93.01 318 -92.02 318 -91 318 C-91 318.66 -91 319.32 -91 320 C-90.34 320 -89.68 320 -89 320 C-88.67 320.66 -88.34 321.32 -88 322 C-86.68 322 -85.36 322 -84 322 C-84 322.66 -84 323.32 -84 324 C-82.68 323.67 -81.36 323.34 -80 323 C-79.67 321.35 -79.34 319.7 -79 318 C-79.99 318 -80.98 318 -82 318 C-82 317.34 -82 316.68 -82 316 C-83.32 316 -84.64 316 -86 316 C-86 315.34 -86 314.68 -86 314 C-86.598125 313.855625 -87.19625 313.71125 -87.8125 313.5625 C-89.56150404 313.1127561 -91.28677023 312.57107659 -93 312 C-93.33 311.34 -93.66 310.68 -94 310 C-94 310.66 -94 311.32 -94 312 C-94.66 312 -95.32 312 -96 312 C-96.66 310.68 -97.32 309.36 -98 308 C-98 308.66 -98 309.32 -98 310 C-99.32 310 -100.64 310 -102 310 C-102 309.34 -102 308.68 -102 308 C-101.34 307.67 -100.68 307.34 -100 307 C-102.31 306.34 -104.62 305.68 -107 305 Z M-112 306 C-112 306.66 -112 307.32 -112 308 C-111.34 307.67 -110.68 307.34 -110 307 C-110.66 306.67 -111.32 306.34 -112 306 Z M-78 320 C-78 320.66 -78 321.32 -78 322 C-77.34 322 -76.68 322 -76 322 C-76 321.34 -76 320.68 -76 320 C-76.66 320 -77.32 320 -78 320 Z M-76 322 C-76 322.66 -76 323.32 -76 324 C-77.32 324 -78.64 324 -80 324 C-80 324.66 -80 325.32 -80 326 C-78.68 326 -77.36 326 -76 326 C-76 326.66 -76 327.32 -76 328 C-74.35 328 -72.7 328 -71 328 C-71 328.66 -71 329.32 -71 330 C-70.01 330 -69.02 330 -68 330 C-68 330.66 -68 331.32 -68 332 C-66.68 332 -65.36 332 -64 332 C-64 332.66 -64 333.32 -64 334 C-63.01 334 -62.02 334 -61 334 C-61 333.34 -61 332.68 -61 332 C-60.34 332 -59.68 332 -59 332 C-59 333.32 -59 334.64 -59 336 C-55.6136749 337.50930183 -55.6136749 337.50930183 -52 338 C-52 338.66 -52 339.32 -52 340 C-50.35 339.67 -48.7 339.34 -47 339 C-47 339.99 -47 340.98 -47 342 C-45.68 342 -44.36 342 -43 342 C-43 342.66 -43 343.32 -43 344 C-42.2575 344.12375 -41.515 344.2475 -40.75 344.375 C-38.17229638 344.96084173 -36.32808664 345.7984069 -34 347 C-33.278125 347.165 -32.55625 347.33 -31.8125 347.5 C-31.214375 347.665 -30.61625 347.83 -30 348 C-29.505 348.99 -29.505 348.99 -29 350 C-26.11785113 349.11785113 -26.11785113 349.11785113 -24 348 C-24.495 349.485 -24.495 349.485 -25 351 C-23.06828122 352.93171878 -19.60004211 352.64745192 -17 353 C-15.66082739 353.30903983 -14.32346746 353.62942911 -13 354 C-13 354.66 -13 355.32 -13 356 C-11.35 356 -9.7 356 -8 356 C-7.67 354.35 -7.34 352.7 -7 351 C-10.85756507 348.84694043 -13.55129785 347.60746746 -18 348 C-18 347.34 -18 346.68 -18 346 C-21.50776784 344.39644899 -24.14354879 343.77963136 -28 344 C-28 343.34 -28 342.68 -28 342 C-29.65 342 -31.3 342 -33 342 C-33.495 341.01 -33.495 341.01 -34 340 C-34 340.66 -34 341.32 -34 342 C-35.32 342 -36.64 342 -38 342 C-38.28875 341.38125 -38.5775 340.7625 -38.875 340.125 C-39.93720042 337.86674235 -39.93720042 337.86674235 -42 336 C-43.32 336 -44.64 336 -46 336 C-46.495 335.01 -46.495 335.01 -47 334 C-48.32 334.33 -49.64 334.66 -51 335 C-51 334.01 -51 333.02 -51 332 C-54.08809695 330.23537317 -55.23312136 330 -59 330 C-59 329.34 -59 328.68 -59 328 C-60.32 328 -61.64 328 -63 328 C-63 327.34 -63 326.68 -63 326 C-63.99 326 -64.98 326 -66 326 C-66.33 326.33 -66.66 326.66 -67 327 C-67 326.01 -67 325.02 -67 324 C-68.32 324 -69.64 324 -71 324 C-71 323.34 -71 322.68 -71 322 C-72.65 322 -74.3 322 -76 322 Z M281 340 C282 342 282 342 282 342 Z " fill="#FFFFFF" transform="translate(296,104)"/>
<path d="M0 0 C1.02104551 0.97850195 2.0206121 1.97980427 3 3 C3.99 3.33 4.98 3.66 6 4 C6 5.32 6 6.64 6 8 C6.9075 7.938125 7.815 7.87625 8.75 7.8125 C12.39547992 8.02281615 13.24674938 8.79739951 16 11 C17.32 11 18.64 11 20 11 C20.33 12.65 20.66 14.3 21 16 C23.98241547 16.77321882 26.97580475 17.41196203 30 18 C30 18.66 30 19.32 30 20 C30.639375 20.103125 31.27875 20.20625 31.9375 20.3125 C32.618125 20.539375 33.29875 20.76625 34 21 C34.495 22.485 34.495 22.485 35 24 C37.10584438 24.80563638 37.10584438 24.80563638 39.5625 25.1875 C40.38878906 25.34605469 41.21507812 25.50460938 42.06640625 25.66796875 C43.02353516 25.83232422 43.02353516 25.83232422 44 26 C44 26.66 44 27.32 44 28 C44.99 28.33 45.98 28.66 47 29 C47.495 30.485 47.495 30.485 48 32 C50.64 32 53.28 32 56 32 C56 32.99 56 33.98 56 35 C56.61875 35.309375 57.2375 35.61875 57.875 35.9375 C59.25 36.625 60.625 37.3125 62 38 C62 38.66 62 39.32 62 40 C63.32 40 64.64 40 66 40 C66 40.66 66 41.32 66 42 C66.99 42 67.98 42 69 42 C69.33 42.33 69.66 42.66 70 43 C70.66 42.67 71.32 42.34 72 42 C72 42.66 72 43.32 72 44 C75.62197194 45.49140021 79.27566618 46.7874262 83 48 C83.495 47.01 83.495 47.01 84 46 C84.66 46 85.32 46 86 46 C86.495 48.97 86.495 48.97 87 52 C87.99 52 88.98 52 90 52 C90.495 53.98 90.495 53.98 91 56 C94.3 56.66 97.6 57.32 101 58 C101 58.99 101 59.98 101 61 C103.31 61.33 105.62 61.66 108 62 C108 62.66 108 63.32 108 64 C109.485 64.495 109.485 64.495 111 65 C111.66 65.66 112.32 66.32 113 67 C113.70125 67.495 114.4025 67.99 115.125 68.5 C115.74375 68.995 116.3625 69.49 117 70 C117 70.66 117 71.32 117 72 C119.31 72 121.62 72 124 72 C124 73.32 124 74.64 124 76 C126.76264289 76.59732819 129.16032769 77 132 77 C132.99 77.33 133.98 77.66 135 78 C135 79.32 135 80.64 135 82 C135.598125 81.814375 136.19625 81.62875 136.8125 81.4375 C139 81 139 81 142 82 C142 83.32 142 84.64 142 86 C142.99 86 143.98 86 145 86 C145 86.66 145 87.32 145 88 C146.65 88 148.3 88 150 88 C150.66 89.32 151.32 90.64 152 92 C153.32 92 154.64 92 156 92 C156 92.66 156 93.32 156 94 C158.97 94.99 158.97 94.99 162 96 C162 96.66 162 97.32 162 98 C162.99 98 163.98 98 165 98 C165 98.66 165 99.32 165 100 C165.99 100.33 166.98 100.66 168 101 C170.13462005 105.65258039 170.2893669 110.14961614 170.27174377 115.18022156 C170.27683061 115.98769122 170.28191745 116.79516089 170.28715843 117.62709934 C170.30178373 120.32395819 170.302352 123.02063362 170.30297852 125.7175293 C170.31064203 127.65441237 170.31918885 129.59129212 170.32855225 131.52816772 C170.34681351 135.6942093 170.35886308 139.86020615 170.36609077 144.02628136 C170.37757964 150.61000315 170.4030358 157.19362577 170.43040466 163.77729797 C170.47203622 174.18580245 170.50446149 184.59431169 170.53287882 195.00285989 C170.5838854 213.65603192 170.64594373 232.30916276 170.71821922 250.96226436 C170.74316957 257.51124296 170.76258815 264.06020839 170.77760136 270.60921705 C170.78778587 274.67594108 170.80193143 278.7426446 170.81707764 282.80935287 C170.82324688 284.69962266 170.82769847 286.58989892 170.83033562 288.48017693 C170.83413208 291.05373266 170.84393373 293.62719733 170.85523987 296.20072937 C170.85466067 297.33125773 170.85466067 297.33125773 170.85406977 298.48462504 C170.87323439 301.59585666 171.00825284 304.02475851 172 307 C170.06729418 308.93270582 166.61358612 308.62663055 164 309 C163.67 309.33 163.34 309.66 163 310 C160.66666667 310.33333333 158.33333333 310.66666667 156 311 C155.67 311.33 155.34 311.66 155 312 C140.74388564 314.95272272 126.30358676 315.09097247 111.8125 315.125 C110.54156494 315.12967285 109.27062988 315.1343457 107.96118164 315.13916016 C106.72231201 315.13706543 105.48344238 315.1349707 104.20703125 315.1328125 C103.1085083 315.13168457 102.00998535 315.13055664 100.87817383 315.12939453 C95.57502831 314.95245609 90.28776791 314.44064733 85 314 C85 275.39 85 236.78 85 197 C86.65 197 88.3 197 90 197 C90 197.99 90 198.98 90 200 C90.66 200 91.32 200 92 200 C94.125 201.875 94.125 201.875 96 204 C96 204.66 96 205.32 96 206 C95.34 206 94.68 206 94 206 C94 206.66 94 207.32 94 208 C95.32 208 96.64 208 98 208 C98 208.66 98 209.32 98 210 C98.66 210 99.32 210 100 210 C100.061875 210.763125 100.12375 211.52625 100.1875 212.3125 C100.77100116 215.20537182 100.77100116 215.20537182 103.4375 216.8125 C105.83172339 218.14015367 105.83172339 218.14015367 108 218 C108 218.99 108 219.98 108 221 C110.76264289 221.59732819 113.16032769 222 116 222 C115.67 223.32 115.34 224.64 115 226 C115.66 226 116.32 226 117 226 C117.33 224.68 117.66 223.36 118 222 C119.65 222 121.3 222 123 222 C123 220.02 123 218.04 123 216 C121.68 215.67 120.36 215.34 119 215 C119.66 214.67 120.32 214.34 121 214 C120.67 212.68 120.34 211.36 120 210 C119.34 210 118.68 210 118 210 C118 209.34 118 208.68 118 208 C117.34 208 116.68 208 116 208 C116 207.34 116 206.68 116 206 C114.35 206 112.7 206 111 206 C111 204 111 202 111 200 C110.01 200 109.02 200 108 200 C107.5978125 199.0409375 107.5978125 199.0409375 107.1875 198.0625 C106.11332248 195.66868314 106.11332248 195.66868314 103 195 C103.33 193.35 103.66 191.7 104 190 C103.34 190 102.68 190 102 190 C102 189.34 102 188.68 102 188 C100.68 187.67 99.36 187.34 98 187 C98 186.34 98 185.68 98 185 C96.515 184.01 96.515 184.01 95 183 C94.3125 180.375 94.3125 180.375 94 178 C92.68 178 91.36 178 90 178 C90 177.34 90 176.68 90 176 C89.01 175.67 88.02 175.34 87 175 C87 174.01 87 173.02 87 172 C85.41032567 168.74047859 85.41032567 168.74047859 83 166 C80.3295947 165.49758678 80.3295947 165.49758678 78 166 C78.495 163.03 78.495 163.03 79 160 C76.36 159.67 73.72 159.34 71 159 C69.79371992 161.33214148 68.8345262 163.49642139 68 166 C65.4375 167.1875 65.4375 167.1875 63 168 C62.67 170.31 62.34 172.62 62 175 C60.35 175.33 58.7 175.66 57 176 C57 176.66 57 177.32 57 178 C56.01 178 55.02 178 54 178 C53.896875 178.78375 53.79375 179.5675 53.6875 180.375 C53 183 53 183 50 185 C49.27034634 187.56282742 49.27034634 187.56282742 49 190 C48.01 190 47.02 190 46 190 C46 191.32 46 192.64 46 194 C45.360625 194.12375 44.72125 194.2475 44.0625 194.375 C43.381875 194.58125 42.70125 194.7875 42 195 C41.67 195.66 41.34 196.32 41 197 C41.33 197.99 41.66 198.98 42 200 C40.68 200 39.36 200 38 200 C36.42726432 202.8424854 36.42726432 202.8424854 36 206 C35.34 206 34.68 206 34 206 C33.67 206.66 33.34 207.32 33 208 C32.01 208 31.02 208 30 208 C29.34 210.64 28.68 213.28 28 216 C27.34 216 26.68 216 26 216 C25.67 217.32 25.34 218.64 25 220 C25.99 220 26.98 220 28 220 C29.6875 222.5 29.6875 222.5 31 225 C34.14737182 224.30058404 37.02588876 223.23921302 40 222 C40 221.34 40 220.68 40 220 C40.66 220 41.32 220 42 220 C42 219.34 42 218.68 42 218 C42.66 218 43.32 218 44 218 C44 217.34 44 216.68 44 216 C44.99 216 45.98 216 47 216 C47 214.68 47 213.36 47 212 C47.33 211.34 47.66 210.68 48 210 C49.65 210 51.3 210 53 210 C54.49821059 206.62902617 55 204.79557881 55 201 C56.11375 200.5978125 56.11375 200.5978125 57.25 200.1875 C59.86636554 199.05770579 61.80187111 197.79106798 64 196 C64.66 197.32 65.32 198.64 66 200 C65.34 200 64.68 200 64 200 C64.07031811 200.60257378 64.14063622 201.20514755 64.21308517 201.82598114 C64.88816775 207.99858725 65.1533895 214.0768323 65.16113281 220.28320312 C65.16858017 221.74361023 65.16858017 221.74361023 65.17617798 223.23352051 C65.19064598 226.41610443 65.19757048 229.59863877 65.203125 232.78125 C65.20736607 234.4186338 65.20736607 234.4186338 65.21169281 236.08909607 C65.22661161 241.84911334 65.23589115 247.60910597 65.24023438 253.36914062 C65.24575355 259.32576432 65.26987409 265.28216339 65.29820633 271.23871613 C65.31677161 275.81962771 65.32203471 280.40048402 65.32357025 284.98143005 C65.32660379 287.17916613 65.33465577 289.37690109 65.34775543 291.57460022 C65.36471136 294.63389728 65.36296312 297.69262884 65.35644531 300.75195312 C65.3656601 301.66412598 65.37487488 302.57629883 65.3843689 303.51611328 C65.36749268 306.03039551 65.36749268 306.03039551 65 310 C62 312 62 312 60.28125 311.71875 C59.15203125 311.36296875 59.15203125 311.36296875 58 311 C55.50135569 310.49142638 53.00213088 309.99070916 50.5 309.5 C43.39421813 308.1064389 43.39421813 308.1064389 40.65625 307.3671875 C38.92892161 306.84007613 38.92892161 306.84007613 37 307.625 C36.34 307.74875 35.68 307.8725 35 308 C34.401875 307.52433594 33.80375 307.04867188 33.1875 306.55859375 C30.61238365 304.72382335 29.12364078 304.58511107 26 304.4375 C22.41838411 304.25732725 20.14414271 303.70627257 17 302 C14.6756398 301.30269194 12.34326294 300.63087848 10 300 C10 299.34 10 298.68 10 298 C9.4225 298.20625 8.845 298.4125 8.25 298.625 C5.38767195 299.10205467 4.57336356 298.28668178 2 297 C-0.66360025 296.52874765 -3.30493254 296.26950675 -6 296 C-6.89910406 292.92273438 -7.12233842 290.18537914 -7.11581039 286.98435783 C-7.11634702 285.45898456 -7.11634702 285.45898456 -7.11689448 283.90279567 C-7.11213705 282.78743627 -7.10737962 281.67207687 -7.10247803 280.5229187 C-7.1013656 279.33668195 -7.10025317 278.1504452 -7.09910703 276.92826188 C-7.09493504 273.63467479 -7.08620104 270.34115717 -7.07549977 267.04758859 C-7.06503103 263.49612821 -7.06033819 259.94465936 -7.05482483 256.39318848 C-7.04160909 248.62905788 -7.02074854 240.86495911 -6.99825954 233.10085058 C-6.98424297 228.25576507 -6.97173709 223.4106764 -6.9595108 218.56558609 C-6.92540082 205.15744114 -6.88940703 191.74930435 -6.84641647 178.34118462 C-6.84366843 177.48322096 -6.84092038 176.6252573 -6.83808906 175.74129475 C-6.83533239 174.88126315 -6.83257572 174.02123155 -6.82973552 173.13513839 C-6.8241501 171.39233837 -6.81856769 169.64953833 -6.81298828 167.90673828 C-6.8102191 167.04224662 -6.80744991 166.17775497 -6.80459681 165.28706659 C-6.76003378 151.26279003 -6.72900346 137.23851864 -6.70378849 123.21419524 C-6.67772563 108.82444024 -6.64050281 94.43474977 -6.59196877 80.04505265 C-6.5649669 71.96203744 -6.54282084 63.87907264 -6.53295135 55.79601669 C-6.52449696 48.91718431 -6.5058961 42.03847514 -6.47384754 35.15971051 C-6.45779217 31.64758264 -6.4466644 28.1356154 -6.44845009 24.62344742 C-6.45024501 20.82320257 -6.42907246 17.02329075 -6.40545654 13.22311401 C-6.409622 12.10329317 -6.41378746 10.98347233 -6.41807914 9.82971752 C-6.4080059 8.8180175 -6.39793266 7.80631748 -6.38755417 6.76395988 C-6.38511349 5.88593645 -6.38267282 5.00791301 -6.38015819 4.10328281 C-6.25470598 3.40919948 -6.12925378 2.71511616 -6 2 C-3 0 -3 0 0 0 Z M107 64 C108 66 108 66 108 66 Z M72 156 C72 156.66 72 157.32 72 158 C72.99 157.67 73.98 157.34 75 157 C74.01 156.67 73.02 156.34 72 156 Z M59 172 C60 174 60 174 60 174 Z M90 174 C91 176 91 176 91 176 Z M91 202 C92 204 92 204 92 204 Z M27 212 C28 214 28 214 28 214 Z M42 220 C43 222 43 222 43 222 Z M40 222 C41 224 41 224 41 224 Z " fill="#FFFFFF" transform="translate(330,104)"/>
<path d="M0 0 C0 0.66 0 1.32 0 2 C0.83789062 2.13277344 1.67578125 2.26554687 2.5390625 2.40234375 C6.17526136 3.03026522 9.76902685 3.78007186 13.375 4.5625 C15.24285156 4.96662109 15.24285156 4.96662109 17.1484375 5.37890625 C18.08945312 5.58386719 19.03046875 5.78882813 20 6 C20 6.66 20 7.32 20 8 C21.299375 7.979375 22.59875 7.95875 23.9375 7.9375 C25.29165633 7.91600546 26.64756083 7.92851801 28 8 C28.495 8.495 28.495 8.495 29 9 C30.68183948 9.23287008 32.3712416 9.41264166 34.0625 9.5625 C34.98160156 9.64628906 35.90070313 9.73007812 36.84765625 9.81640625 C37.55792969 9.87699219 38.26820313 9.93757813 39 10 C39 10.66 39 11.32 39 12 C42.3 12 45.6 12 49 12 C49.6875 14.3125 49.6875 14.3125 50 17 C48.9375 18.75 48.9375 18.75 47 20 C44.0625 20.625 44.0625 20.625 41 21 C39.66262906 21.31674575 38.32711192 21.64270064 37 22 C37 22.66 37 23.32 37 24 C36.01 24 35.02 24 34 24 C34 24.66 34 25.32 34 26 C33.01 26 32.02 26 31 26 C31 26.66 31 27.32 31 28 C28.04518508 30.74375671 27.22528092 31 23 31 C22.54625 31.804375 22.0925 32.60875 21.625 33.4375 C20 36 20 36 17 36.6875 C16.01 36.790625 15.02 36.89375 14 37 C11.13014269 38.72265295 11.13014269 38.72265295 9.75 40.4375 C7.16906913 42.74190256 4.18859077 43.72456369 1 45 C0.01 45.495 0.01 45.495 -1 46 C-1 46.66 -1 47.32 -1 48 C-1.66 48 -2.32 48 -3 48 C-3 47.34 -3 46.68 -3 46 C-4.485 46.495 -4.485 46.495 -6 47 C-8 45 -8 45 -8.24050903 43.05111694 C-8.23606781 42.256138 -8.23162659 41.46115906 -8.22705078 40.64208984 C-8.22689972 39.74130707 -8.22674866 38.84052429 -8.22659302 37.91244507 C-8.21627045 36.93844757 -8.20594788 35.96445007 -8.1953125 34.9609375 C-8.1924826 33.96494537 -8.18965271 32.96895325 -8.18673706 31.94277954 C-8.1755184 28.75339882 -8.15041081 25.56429622 -8.125 22.375 C-8.11497238 20.21614988 -8.10584615 18.05729537 -8.09765625 15.8984375 C-8.07557361 10.59886301 -8.04207958 5.29945137 -8 0 C-4.90279155 -0.87840996 -3.09354597 -0.99435406 0 0 Z " fill="#FFFFFF" transform="translate(331,474)"/>
<path d="M0 0 C1.32 0 2.64 0 4 0 C4 0.66 4 1.32 4 2 C2.68 2 1.36 2 0 2 C0 1.34 0 0.68 0 0 Z " fill="#FFFFFF" transform="translate(384,484)"/>
<path d="M0 0 C1.32 0 2.64 0 4 0 C4 0.66 4 1.32 4 2 C2.68 2 1.36 2 0 2 C0 1.34 0 0.68 0 0 Z " fill="#FFFFFF" transform="translate(374,482)"/>
<path d="M0 0 C1.32 0 2.64 0 4 0 C4 0.66 4 1.32 4 2 C2.68 2 1.36 2 0 2 C0 1.34 0 0.68 0 0 Z " fill="#FFFFFF" transform="translate(214,476)"/>
<path d="M0 0 C1.32 0 2.64 0 4 0 C4 0.66 4 1.32 4 2 C2.68 2 1.36 2 0 2 C0 1.34 0 0.68 0 0 Z " fill="#FFFFFF" transform="translate(210,474)"/>
<path d="M0 0 C1.32 0 2.64 0 4 0 C4 0.66 4 1.32 4 2 C2.68 2 1.36 2 0 2 C0 1.34 0 0.68 0 0 Z " fill="#FFFFFF" transform="translate(178,460)"/>
<path d="M0 0 C1.32 0 2.64 0 4 0 C4 0.66 4 1.32 4 2 C2.68 2 1.36 2 0 2 C0 1.34 0 0.68 0 0 Z " fill="#FFFFFF" transform="translate(146,442)"/>
<path d="M0 0 C1.65 0 3.3 0 5 0 C5 0.66 5 1.32 5 2 C3.35 2 1.7 2 0 2 C0 1.34 0 0.68 0 0 Z " fill="#FFFFFF" transform="translate(416,420)"/>
<path d="M0 0 C0.66 0 1.32 0 2 0 C2 1.32 2 2.64 2 4 C1.34 4 0.68 4 0 4 C0 2.68 0 1.36 0 0 Z " fill="#FFFFFF" transform="translate(188,312)"/>
<path d="M0 0 C0.66 0 1.32 0 2 0 C2 1.32 2 2.64 2 4 C1.34 4 0.68 4 0 4 C0 2.68 0 1.36 0 0 Z " fill="#FFFFFF" transform="translate(188,306)"/>
<path d="M0 0 C0.66 0 1.32 0 2 0 C2 1.32 2 2.64 2 4 C1.34 4 0.68 4 0 4 C0 2.68 0 1.36 0 0 Z " fill="#FFFFFF" transform="translate(538,300)"/>
<path d="M0 0 C0.66 0 1.32 0 2 0 C2 1.32 2 2.64 2 4 C1.34 4 0.68 4 0 4 C0 2.68 0 1.36 0 0 Z " fill="#FFFFFF" transform="translate(100,174)"/>
<path d="M0 0 C1.32 0.33 2.64 0.66 4 1 C2.68 1.33 1.36 1.66 0 2 C0 1.34 0 0.68 0 0 Z " fill="#FFFFFF" transform="translate(161,444)"/>
<path d="M0 0 C0.99 0 1.98 0 3 0 C3 0.66 3 1.32 3 2 C2.01 2 1.02 2 0 2 C0 1.34 0 0.68 0 0 Z " fill="#FFFFFF" transform="translate(290,520)"/>
<path d="M0 0 C0.99 0 1.98 0 3 0 C3 0.66 3 1.32 3 2 C2.01 2 1.02 2 0 2 C0 1.34 0 0.68 0 0 Z " fill="#FFFFFF" transform="translate(552,476)"/>
<path d="M0 0 C0.99 0 1.98 0 3 0 C3 0.66 3 1.32 3 2 C2.01 2 1.02 2 0 2 C0 1.34 0 0.68 0 0 Z " fill="#FFFFFF" transform="translate(238,436)"/>
<path d="M0 0 C0.99 0 1.98 0 3 0 C3 0.66 3 1.32 3 2 C2.01 2 1.02 2 0 2 C0 1.34 0 0.68 0 0 Z " fill="#FFFFFF" transform="translate(352,410)"/>
<path d="M0 0 C0.99 0 1.98 0 3 0 C3 0.66 3 1.32 3 2 C2.01 2 1.02 2 0 2 C0 1.34 0 0.68 0 0 Z " fill="#FFFFFF" transform="translate(339,406)"/>
<path d="M0 0 C0 0.66 0 1.32 0 2 C-1.32 1.67 -2.64 1.34 -4 1 C-2 0 -2 0 0 0 Z " fill="#FFFFFF" transform="translate(274,380)"/>
<path d="M0 0 C0.99 0 1.98 0 3 0 C3 0.66 3 1.32 3 2 C2.01 2 1.02 2 0 2 C0 1.34 0 0.68 0 0 Z " fill="#FFFFFF" transform="translate(238,364)"/>
<path d="M0 0 C0.66 0 1.32 0 2 0 C1.67 1.32 1.34 2.64 1 4 C0.67 2.68 0.34 1.36 0 0 Z " fill="#FFFFFF" transform="translate(34,240)"/>
<path d="M0 0 C0.33 0.99 0.66 1.98 1 3 C0.34 3 -0.32 3 -1 3 C-0.67 2.01 -0.34 1.02 0 0 Z " fill="#FFFFFF" transform="translate(383,487)"/>
<path d="M0 0 C0.66 0 1.32 0 2 0 C2 0.66 2 1.32 2 2 C1.01 1.67 0.02 1.34 -1 1 C-0.67 0.67 -0.34 0.34 0 0 Z " fill="#FFFFFF" transform="translate(180,404)"/>
<path d="M0 0 C0.99 0 1.98 0 3 0 C3 0.66 3 1.32 3 2 C2.01 1.67 1.02 1.34 0 1 C0 0.67 0 0.34 0 0 Z " fill="#FFFFFF" transform="translate(117,358)"/>
<path d="M0 0 C0.66 0 1.32 0 2 0 C1.67 0.99 1.34 1.98 1 3 C0.67 2.01 0.34 1.02 0 0 Z " fill="#FFFFFF" transform="translate(52,282)"/>
<path d="M0 0 C0.66 0 1.32 0 2 0 C2 0.66 2 1.32 2 2 C1.34 2 0.68 2 0 2 C0 1.34 0 0.68 0 0 Z " fill="#FFFFFF" transform="translate(302,524)"/>
<path d="M0 0 C0.66 0 1.32 0 2 0 C2 0.66 2 1.32 2 2 C1.34 2 0.68 2 0 2 C0 1.34 0 0.68 0 0 Z " fill="#FFFFFF" transform="translate(320,514)"/>
<path d="M0 0 C0.66 0 1.32 0 2 0 C2 0.66 2 1.32 2 2 C1.34 2 0.68 2 0 2 C0 1.34 0 0.68 0 0 Z " fill="#FFFFFF" transform="translate(256,504)"/>
<path d="M0 0 C0.66 0 1.32 0 2 0 C2 0.66 2 1.32 2 2 C1.34 2 0.68 2 0 2 C0 1.34 0 0.68 0 0 Z " fill="#FFFFFF" transform="translate(398,490)"/>
<path d="M0 0 C0.66 0 1.32 0 2 0 C2 0.66 2 1.32 2 2 C1.34 2 0.68 2 0 2 C0 1.34 0 0.68 0 0 Z " fill="#FFFFFF" transform="translate(240,490)"/>
<path d="M0 0 C0.66 0 1.32 0 2 0 C2 0.66 2 1.32 2 2 C1.34 2 0.68 2 0 2 C0 1.34 0 0.68 0 0 Z " fill="#FFFFFF" transform="translate(208,476)"/>
<path d="M0 0 C0.66 0 1.32 0 2 0 C2 0.66 2 1.32 2 2 C1.34 2 0.68 2 0 2 C0 1.34 0 0.68 0 0 Z " fill="#FFFFFF" transform="translate(184,458)"/>
<path d="M0 0 C0.66 0 1.32 0 2 0 C2 0.66 2 1.32 2 2 C1.34 2 0.68 2 0 2 C0 1.34 0 0.68 0 0 Z " fill="#FFFFFF" transform="translate(178,454)"/>
<path d="M0 0 C0.66 0 1.32 0 2 0 C2 0.66 2 1.32 2 2 C1.34 2 0.68 2 0 2 C0 1.34 0 0.68 0 0 Z " fill="#FFFFFF" transform="translate(588,446)"/>
<path d="M0 0 C0.66 0 1.32 0 2 0 C2 0.66 2 1.32 2 2 C1.34 2 0.68 2 0 2 C0 1.34 0 0.68 0 0 Z " fill="#FFFFFF" transform="translate(584,436)"/>
<path d="M0 0 C0.66 0 1.32 0 2 0 C2 0.66 2 1.32 2 2 C1.34 2 0.68 2 0 2 C0 1.34 0 0.68 0 0 Z " fill="#FFFFFF" transform="translate(586,432)"/>
<path d="M0 0 C0.66 0 1.32 0 2 0 C2 0.66 2 1.32 2 2 C1.34 2 0.68 2 0 2 C0 1.34 0 0.68 0 0 Z " fill="#FFFFFF" transform="translate(588,430)"/>
<path d="M0 0 C0.66 0 1.32 0 2 0 C2 0.66 2 1.32 2 2 C1.34 2 0.68 2 0 2 C0 1.34 0 0.68 0 0 Z " fill="#FFFFFF" transform="translate(134,430)"/>
<path d="M0 0 C0.66 0 1.32 0 2 0 C2 0.66 2 1.32 2 2 C1.34 2 0.68 2 0 2 C0 1.34 0 0.68 0 0 Z " fill="#FFFFFF" transform="translate(546,368)"/>
<path d="M0 0 C0.66 0 1.32 0 2 0 C2 0.66 2 1.32 2 2 C1.34 2 0.68 2 0 2 C0 1.34 0 0.68 0 0 Z " fill="#FFFFFF" transform="translate(222,354)"/>
<path d="M0 0 C0.66 0 1.32 0 2 0 C2 0.66 2 1.32 2 2 C1.34 2 0.68 2 0 2 C0 1.34 0 0.68 0 0 Z " fill="#FFFFFF" transform="translate(588,352)"/>
<path d="M0 0 C0.66 0 1.32 0 2 0 C2 0.66 2 1.32 2 2 C1.34 2 0.68 2 0 2 C0 1.34 0 0.68 0 0 Z " fill="#FFFFFF" transform="translate(584,352)"/>
<path d="M0 0 C0.66 0 1.32 0 2 0 C2 0.66 2 1.32 2 2 C1.34 2 0.68 2 0 2 C0 1.34 0 0.68 0 0 Z " fill="#FFFFFF" transform="translate(242,328)"/>
<path d="M0 0 C0.66 0 1.32 0 2 0 C2 0.66 2 1.32 2 2 C1.34 2 0.68 2 0 2 C0 1.34 0 0.68 0 0 Z " fill="#FFFFFF" transform="translate(82,328)"/>
<path d="M0 0 C0.66 0 1.32 0 2 0 C2 0.66 2 1.32 2 2 C1.34 2 0.68 2 0 2 C0 1.34 0 0.68 0 0 Z " fill="#FFFFFF" transform="translate(362,324)"/>
<path d="M0 0 C0.66 0 1.32 0 2 0 C2 0.66 2 1.32 2 2 C1.34 2 0.68 2 0 2 C0 1.34 0 0.68 0 0 Z " fill="#FFFFFF" transform="translate(568,322)"/>
<path d="M0 0 C0.66 0 1.32 0 2 0 C2 0.66 2 1.32 2 2 C1.34 2 0.68 2 0 2 C0 1.34 0 0.68 0 0 Z " fill="#FFFFFF" transform="translate(368,322)"/>
<path d="M0 0 C0.66 0 1.32 0 2 0 C2 0.66 2 1.32 2 2 C1.34 2 0.68 2 0 2 C0 1.34 0 0.68 0 0 Z " fill="#FFFFFF" transform="translate(358,322)"/>
<path d="M0 0 C0.66 0 1.32 0 2 0 C2 0.66 2 1.32 2 2 C1.34 2 0.68 2 0 2 C0 1.34 0 0.68 0 0 Z " fill="#FFFFFF" transform="translate(252,322)"/>
<path d="M0 0 C0.66 0 1.32 0 2 0 C2 0.66 2 1.32 2 2 C1.34 2 0.68 2 0 2 C0 1.34 0 0.68 0 0 Z " fill="#FFFFFF" transform="translate(240,322)"/>
<path d="M0 0 C0.66 0 1.32 0 2 0 C2 0.66 2 1.32 2 2 C1.34 2 0.68 2 0 2 C0 1.34 0 0.68 0 0 Z " fill="#FFFFFF" transform="translate(182,312)"/>
<path d="M0 0 C0.66 0 1.32 0 2 0 C2 0.66 2 1.32 2 2 C1.34 2 0.68 2 0 2 C0 1.34 0 0.68 0 0 Z " fill="#FFFFFF" transform="translate(176,306)"/>
<path d="M0 0 C0.66 0 1.32 0 2 0 C2 0.66 2 1.32 2 2 C1.34 2 0.68 2 0 2 C0 1.34 0 0.68 0 0 Z " fill="#FFFFFF" transform="translate(182,300)"/>
<path d="M0 0 C0.66 0 1.32 0 2 0 C2 0.66 2 1.32 2 2 C1.34 2 0.68 2 0 2 C0 1.34 0 0.68 0 0 Z " fill="#FFFFFF" transform="translate(54,294)"/>
<path d="M0 0 C0.66 0 1.32 0 2 0 C2 0.66 2 1.32 2 2 C1.34 2 0.68 2 0 2 C0 1.34 0 0.68 0 0 Z " fill="#FFFFFF" transform="translate(58,292)"/>
<path d="M0 0 C0.66 0 1.32 0 2 0 C2 0.66 2 1.32 2 2 C1.34 2 0.68 2 0 2 C0 1.34 0 0.68 0 0 Z " fill="#FFFFFF" transform="translate(532,290)"/>
<path d="M0 0 C0.66 0 1.32 0 2 0 C2 0.66 2 1.32 2 2 C1.34 2 0.68 2 0 2 C0 1.34 0 0.68 0 0 Z " fill="#FFFFFF" transform="translate(558,288)"/>
<path d="M0 0 C0.66 0 1.32 0 2 0 C2 0.66 2 1.32 2 2 C1.34 2 0.68 2 0 2 C0 1.34 0 0.68 0 0 Z " fill="#FFFFFF" transform="translate(552,288)"/>
<path d="M0 0 C0.66 0 1.32 0 2 0 C2 0.66 2 1.32 2 2 C1.34 2 0.68 2 0 2 C0 1.34 0 0.68 0 0 Z " fill="#FFFFFF" transform="translate(540,286)"/>
<path d="M0 0 C0.66 0 1.32 0 2 0 C2 0.66 2 1.32 2 2 C1.34 2 0.68 2 0 2 C0 1.34 0 0.68 0 0 Z " fill="#FFFFFF" transform="translate(528,284)"/>
<path d="M0 0 C0.66 0 1.32 0 2 0 C2 0.66 2 1.32 2 2 C1.34 2 0.68 2 0 2 C0 1.34 0 0.68 0 0 Z " fill="#FFFFFF" transform="translate(540,274)"/>
<path d="M0 0 C0.66 0 1.32 0 2 0 C2 0.66 2 1.32 2 2 C1.34 2 0.68 2 0 2 C0 1.34 0 0.68 0 0 Z " fill="#FFFFFF" transform="translate(534,274)"/>
<path d="M0 0 C0.66 0 1.32 0 2 0 C2 0.66 2 1.32 2 2 C1.34 2 0.68 2 0 2 C0 1.34 0 0.68 0 0 Z " fill="#FFFFFF" transform="translate(402,270)"/>
<path d="M0 0 C0.66 0 1.32 0 2 0 C2 0.66 2 1.32 2 2 C1.34 2 0.68 2 0 2 C0 1.34 0 0.68 0 0 Z " fill="#FFFFFF" transform="translate(118,262)"/>
<path d="M0 0 C0.66 0 1.32 0 2 0 C2 0.66 2 1.32 2 2 C1.34 2 0.68 2 0 2 C0 1.34 0 0.68 0 0 Z " fill="#FFFFFF" transform="translate(120,258)"/>
<path d="M0 0 C0.66 0 1.32 0 2 0 C2 0.66 2 1.32 2 2 C1.34 2 0.68 2 0 2 C0 1.34 0 0.68 0 0 Z " fill="#FFFFFF" transform="translate(106,224)"/>
<path d="M0 0 C0.66 0 1.32 0 2 0 C2 0.66 2 1.32 2 2 C1.34 2 0.68 2 0 2 C0 1.34 0 0.68 0 0 Z " fill="#FFFFFF" transform="translate(490,196)"/>
<path d="M0 0 C0.66 0 1.32 0 2 0 C2 0.66 2 1.32 2 2 C1.34 2 0.68 2 0 2 C0 1.34 0 0.68 0 0 Z " fill="#FFFFFF" transform="translate(150,186)"/>
<path d="M0 0 C0.66 0 1.32 0 2 0 C2 0.66 2 1.32 2 2 C1.34 2 0.68 2 0 2 C0 1.34 0 0.68 0 0 Z " fill="#FFFFFF" transform="translate(158,178)"/>
<path d="M0 0 C0.66 0 1.32 0 2 0 C2 0.66 2 1.32 2 2 C1.34 2 0.68 2 0 2 C0 1.34 0 0.68 0 0 Z " fill="#FFFFFF" transform="translate(148,176)"/>
<path d="M0 0 C0.66 0 1.32 0 2 0 C2 0.66 2 1.32 2 2 C1.34 2 0.68 2 0 2 C0 1.34 0 0.68 0 0 Z " fill="#FFFFFF" transform="translate(40,176)"/>
<path d="M0 0 C0.66 0 1.32 0 2 0 C2 0.66 2 1.32 2 2 C1.34 2 0.68 2 0 2 C0 1.34 0 0.68 0 0 Z " fill="#FFFFFF" transform="translate(190,164)"/>
<path d="M0 0 C0.66 0 1.32 0 2 0 C2 0.66 2 1.32 2 2 C1.34 2 0.68 2 0 2 C0 1.34 0 0.68 0 0 Z " fill="#FFFFFF" transform="translate(176,160)"/>
<path d="M0 0 C0.66 0 1.32 0 2 0 C2 0.66 2 1.32 2 2 C1.34 2 0.68 2 0 2 C0 1.34 0 0.68 0 0 Z " fill="#FFFFFF" transform="translate(126,156)"/>
<path d="M0 0 C0.66 0 1.32 0 2 0 C2 0.66 2 1.32 2 2 C1.34 2 0.68 2 0 2 C0 1.34 0 0.68 0 0 Z " fill="#FFFFFF" transform="translate(242,134)"/>
<path d="M0 0 C0.66 0 1.32 0 2 0 C2 0.66 2 1.32 2 2 C1.34 2 0.68 2 0 2 C0 1.34 0 0.68 0 0 Z " fill="#FFFFFF" transform="translate(256,124)"/>
<path d="M0 0 C0.66 0 1.32 0 2 0 C2 0.66 2 1.32 2 2 C1.34 2 0.68 2 0 2 C0 1.34 0 0.68 0 0 Z " fill="#FFFFFF" transform="translate(292,104)"/>
<path d="M0 0 C0.99 0.495 0.99 0.495 2 1 C1.01 1.495 1.01 1.495 0 2 C0 1.34 0 0.68 0 0 Z " fill="#FFFFFF" transform="translate(366,499)"/>
<path d="M0 0 C0.99 0.495 0.99 0.495 2 1 C1.01 1.495 1.01 1.495 0 2 C0 1.34 0 0.68 0 0 Z " fill="#FFFFFF" transform="translate(281,454)"/>
<path d="" fill="#FFFFFF" transform="translate(0,0)"/>
<path d="M0 0 C0.33 0.66 0.66 1.32 1 2 C0.34 1.67 -0.32 1.34 -1 1 C-0.67 0.67 -0.34 0.34 0 0 Z " fill="#FFFFFF" transform="translate(373,298)"/>
<path d="M0 0 C0.66 0 1.32 0 2 0 C1.67 0.66 1.34 1.32 1 2 C0.67 1.34 0.34 0.68 0 0 Z " fill="#FFFFFF" transform="translate(544,290)"/>
<path d="M0 0 C0.33 0.66 0.66 1.32 1 2 C0.34 1.67 -0.32 1.34 -1 1 C-0.67 0.67 -0.34 0.34 0 0 Z " fill="#FFFFFF" transform="translate(37,184)"/>
<path d="M0 0 C0.33 0.66 0.66 1.32 1 2 C0.34 1.67 -0.32 1.34 -1 1 C-0.67 0.67 -0.34 0.34 0 0 Z " fill="#FFFFFF" transform="translate(186,166)"/>
<path d="M0 0 C2 1 2 1 2 1 Z " fill="#FFFFFF" transform="translate(378,494)"/>
<path d="M0 0 C2 1 2 1 2 1 Z " fill="#FFFFFF" transform="translate(511,483)"/>
<path d="M0 0 C2 1 2 1 2 1 Z " fill="#FFFFFF" transform="translate(324,472)"/>
<path d="M0 0 C2 1 2 1 2 1 Z " fill="#FFFFFF" transform="translate(322,470)"/>
<path d="M0 0 C2 1 2 1 2 1 Z " fill="#FFFFFF" transform="translate(320,469)"/>
<path d="M0 0 C2 1 2 1 2 1 Z " fill="#FFFFFF" transform="translate(272,450)"/>
<path d="" fill="#FFFFFF" transform="translate(0,0)"/>
<path d="" fill="#FFFFFF" transform="translate(0,0)"/>
<path d="" fill="#FFFFFF" transform="translate(0,0)"/>
<path d="M0 0 C2 1 2 1 2 1 Z " fill="#FFFFFF" transform="translate(241,339)"/>
<path d="" fill="#FFFFFF" transform="translate(0,0)"/>
<path d="" fill="#FFFFFF" transform="translate(0,0)"/>
<path d="M0 0 C2 1 2 1 2 1 Z " fill="#FFFFFF" transform="translate(428,311)"/>
<path d="" fill="#FFFFFF" transform="translate(0,0)"/>
<path d="" fill="#FFFFFF" transform="translate(0,0)"/>
<path d="" fill="#FFFFFF" transform="translate(0,0)"/>
<path d="" fill="#FFFFFF" transform="translate(0,0)"/>
<path d="" fill="#FFFFFF" transform="translate(0,0)"/>
<path d="M0 0 C2 1 2 1 2 1 Z " fill="#FFFFFF" transform="translate(498,205)"/>
<path d="M0 0 C2 1 2 1 2 1 Z " fill="#FFFFFF" transform="translate(487,195)"/>
<path d="" fill="#FFFFFF" transform="translate(0,0)"/>
<path d="M0 0 C2 1 2 1 2 1 Z " fill="#FFFFFF" transform="translate(48,165)"/>
<path d="M0 0 C2 1 2 1 2 1 Z " fill="#FFFFFF" transform="translate(106,164)"/>
<path d="M0 0 C2 1 2 1 2 1 Z " fill="#FFFFFF" transform="translate(100,132)"/>
<path d="" fill="#FFFFFF" transform="translate(0,0)"/>
<path d="M0 0 C2 1 2 1 2 1 Z " fill="#FFFFFF" transform="translate(333,106)"/>
<path d="" fill="#FFFFFF" transform="translate(0,0)"/>
<path d="" fill="#FFFFFF" transform="translate(0,0)"/>
<path d="" fill="#FFFFFF" transform="translate(0,0)"/>
<path d="" fill="#FFFFFF" transform="translate(0,0)"/>
<path d="" fill="#FFFFFF" transform="translate(0,0)"/>
<path d="" fill="#FFFFFF" transform="translate(0,0)"/>
<path d="" fill="#FFFFFF" transform="translate(0,0)"/>
<path d="" fill="#FFFFFF" transform="translate(0,0)"/>
<path d="" fill="#FFFFFF" transform="translate(0,0)"/>
<path d="" fill="#FFFFFF" transform="translate(0,0)"/>
<path d="" fill="#FFFFFF" transform="translate(0,0)"/>
<path d="" fill="#FFFFFF" transform="translate(0,0)"/>
<path d="" fill="#FFFFFF" transform="translate(0,0)"/>
<path d="" fill="#FFFFFF" transform="translate(0,0)"/>
<path d="" fill="#FFFFFF" transform="translate(0,0)"/>
<path d="" fill="#FFFFFF" transform="translate(0,0)"/>
<path d="" fill="#FFFFFF" transform="translate(0,0)"/>
<path d="" fill="#FFFFFF" transform="translate(0,0)"/>
<path d="" fill="#FFFFFF" transform="translate(0,0)"/>
<path d="" fill="#FFFFFF" transform="translate(0,0)"/>
<path d="" fill="#FFFFFF" transform="translate(0,0)"/>
<path d="" fill="#FFFFFF" transform="translate(0,0)"/>
<path d="" fill="#FFFFFF" transform="translate(0,0)"/>
<path d="" fill="#FFFFFF" transform="translate(0,0)"/>
<path d="" fill="#FFFFFF" transform="translate(0,0)"/>
<path d="" fill="#FFFFFF" transform="translate(0,0)"/>
<path d="" fill="#FFFFFF" transform="translate(0,0)"/>
<path d="" fill="#FFFFFF" transform="translate(0,0)"/>
<path d="" fill="#FFFFFF" transform="translate(0,0)"/>
<path d="" fill="#FFFFFF" transform="translate(0,0)"/>
<path d="" fill="#FFFFFF" transform="translate(0,0)"/>
<path d="" fill="#FFFFFF" transform="translate(0,0)"/>
<path d="" fill="#FFFFFF" transform="translate(0,0)"/>
<path d="" fill="#FFFFFF" transform="translate(0,0)"/>
<path d="" fill="#FFFFFF" transform="translate(0,0)"/>
<path d="" fill="#FFFFFF" transform="translate(0,0)"/>
<path d="" fill="#FFFFFF" transform="translate(0,0)"/>
<path d="" fill="#FFFFFF" transform="translate(0,0)"/>
<path d="" fill="#FFFFFF" transform="translate(0,0)"/>
<path d="" fill="#FFFFFF" transform="translate(0,0)"/>
<path d="" fill="#FFFFFF" transform="translate(0,0)"/>
<path d="" fill="#FFFFFF" transform="translate(0,0)"/>
<path d="" fill="#FFFFFF" transform="translate(0,0)"/>
<path d="" fill="#FFFFFF" transform="translate(0,0)"/>
<path d="" fill="#FFFFFF" transform="translate(0,0)"/>
<path d="" fill="#FFFFFF" transform="translate(0,0)"/>
<path d="" fill="#FFFFFF" transform="translate(0,0)"/>
<path d="" fill="#FFFFFF" transform="translate(0,0)"/>
<path d="" fill="#FFFFFF" transform="translate(0,0)"/>
<path d="" fill="#FFFFFF" transform="translate(0,0)"/>
<path d="" fill="#FFFFFF" transform="translate(0,0)"/>
<path d="" fill="#FFFFFF" transform="translate(0,0)"/>
<path d="" fill="#FFFFFF" transform="translate(0,0)"/>
<path d="" fill="#FFFFFF" transform="translate(0,0)"/>
<path d="" fill="#FFFFFF" transform="translate(0,0)"/>
<path d="" fill="#FFFFFF" transform="translate(0,0)"/>
<path d="" fill="#FFFFFF" transform="translate(0,0)"/>
<path d="" fill="#FFFFFF" transform="translate(0,0)"/>
<path d="" fill="#FFFFFF" transform="translate(0,0)"/>
<path d="" fill="#FFFFFF" transform="translate(0,0)"/>
<path d="" fill="#FFFFFF" transform="translate(0,0)"/>
<path d="" fill="#FFFFFF" transform="translate(0,0)"/>
<path d="" fill="#FFFFFF" transform="translate(0,0)"/>
<path d="" fill="#FFFFFF" transform="translate(0,0)"/>
<path d="" fill="#FFFFFF" transform="translate(0,0)"/>
<path d="" fill="#FFFFFF" transform="translate(0,0)"/>
<path d="" fill="#FFFFFF" transform="translate(0,0)"/>
<path d="" fill="#FFFFFF" transform="translate(0,0)"/>
<path d="" fill="#FFFFFF" transform="translate(0,0)"/>
<path d="" fill="#FFFFFF" transform="translate(0,0)"/>
<path d="" fill="#FFFFFF" transform="translate(0,0)"/>
<path d="" fill="#FFFFFF" transform="translate(0,0)"/>
<path d="" fill="#FFFFFF" transform="translate(0,0)"/>
<path d="" fill="#FFFFFF" transform="translate(0,0)"/>
<path d="" fill="#FFFFFF" transform="translate(0,0)"/>
<path d="" fill="#FFFFFF" transform="translate(0,0)"/>
<path d="" fill="#FFFFFF" transform="translate(0,0)"/>
<path d="" fill="#FFFFFF" transform="translate(0,0)"/>
<path d="" fill="#FFFFFF" transform="translate(0,0)"/>
<path d="" fill="#FFFFFF" transform="translate(0,0)"/>
<path d="" fill="#FFFFFF" transform="translate(0,0)"/>
<path d="" fill="#FFFFFF" transform="translate(0,0)"/>
<path d="" fill="#FFFFFF" transform="translate(0,0)"/>
<path d="" fill="#FFFFFF" transform="translate(0,0)"/>
<path d="" fill="#FFFFFF" transform="translate(0,0)"/>
<path d="" fill="#FFFFFF" transform="translate(0,0)"/>
<path d="" fill="#FFFFFF" transform="translate(0,0)"/>
<path d="" fill="#FFFFFF" transform="translate(0,0)"/>
<path d="" fill="#FFFFFF" transform="translate(0,0)"/>
<path d="" fill="#FFFFFF" transform="translate(0,0)"/>
<path d="" fill="#FFFFFF" transform="translate(0,0)"/>
<path d="" fill="#FFFFFF" transform="translate(0,0)"/>
<path d="" fill="#FFFFFF" transform="translate(0,0)"/>
<path d="" fill="#FFFFFF" transform="translate(0,0)"/>
<path d="" fill="#FFFFFF" transform="translate(0,0)"/>
<path d="" fill="#FFFFFF" transform="translate(0,0)"/>
<path d="" fill="#FFFFFF" transform="translate(0,0)"/>
<path d="" fill="#FFFFFF" transform="translate(0,0)"/>
<path d="" fill="#FFFFFF" transform="translate(0,0)"/>
<path d="" fill="#FFFFFF" transform="translate(0,0)"/>
<path d="" fill="#FFFFFF" transform="translate(0,0)"/>
<path d="" fill="#FFFFFF" transform="translate(0,0)"/>
<path d="" fill="#FFFFFF" transform="translate(0,0)"/>
<path d="" fill="#FFFFFF" transform="translate(0,0)"/>
<path d="" fill="#FFFFFF" transform="translate(0,0)"/>
<path d="" fill="#FFFFFF" transform="translate(0,0)"/>
</svg>
